<svg preserveAspectRatio="none" width="100%" height="100%" overflow="visible" style="display: block;" viewBox="0 0 53 53" fill="none" xmlns="http://www.w3.org/2000/svg">
<g id="fluent:chat-off-20-filled">
<path id="Vector" d="M10.6 12.4762L5.68955 7.5631C5.56636 7.43991 5.46863 7.29365 5.40196 7.1327C5.33529 6.97174 5.30098 6.79922 5.30098 6.625C5.30098 6.45078 5.33529 6.27826 5.40196 6.1173C5.46863 5.95634 5.56636 5.81009 5.68955 5.6869C5.81274 5.56371 5.95899 5.46598 6.11995 5.39931C6.28091 5.33264 6.45343 5.29833 6.62765 5.29833C6.80187 5.29833 6.97439 5.33264 7.13535 5.39931C7.2963 5.46598 7.44256 5.56371 7.56575 5.6869L12.4788 10.6026L42.4 40.5238L47.3157 45.4369C47.5645 45.6857 47.7043 46.0231 47.7043 46.375C47.7043 46.7269 47.5645 47.0643 47.3157 47.3131C47.0669 47.5619 46.7295 47.7017 46.3776 47.7017C46.0258 47.7017 45.6883 47.5619 45.4395 47.3131L40.5265 42.3973C36.6569 45.821 31.6667 47.7076 26.5 47.7C23.1739 47.7019 19.8941 46.9212 16.9255 45.421L16.6049 45.2488L6.94565 47.6603C6.75975 47.707 6.56593 47.7128 6.37755 47.6774C6.18918 47.642 6.01073 47.5661 5.85453 47.455C5.69834 47.3439 5.5681 47.2002 5.47282 47.0339C5.37754 46.8676 5.31948 46.6825 5.30265 46.4916V46.2743L5.33975 46.0543L7.75125 36.3977L7.5843 36.0797C6.37463 33.6913 5.62831 31.0954 5.3848 28.4292L5.31855 27.4169L5.3 26.5C5.29233 21.3346 7.17787 16.3454 10.6 12.4762ZM29.0652 30.9388L27.2764 29.15H19.875L19.6365 29.1712C19.331 29.2265 19.0546 29.3874 18.8556 29.6256C18.6566 29.8639 18.5476 30.1645 18.5476 30.475C18.5476 30.7855 18.6566 31.0861 18.8556 31.3244C19.0546 31.5626 19.331 31.7235 19.6365 31.7788L19.875 31.8H27.825L28.0635 31.7788C28.2889 31.7373 28.4996 31.6382 28.6752 31.4909C28.8507 31.3437 28.9851 31.1534 29.0652 30.9388ZM21.9764 23.85L19.4112 21.2848C19.1399 21.3864 18.9093 21.5743 18.7548 21.8195C18.6004 22.0647 18.5306 22.3538 18.5562 22.6425C18.5817 22.9312 18.7012 23.2035 18.8963 23.4178C19.0915 23.632 19.3515 23.7764 19.6365 23.8288L19.875 23.85H21.9764ZM33.125 23.85H29.4707L44.0377 38.4144C46.8126 34.3341 48.0773 29.4135 47.6137 24.5009C47.1501 19.5882 44.9874 14.9911 41.4981 11.5019C38.0089 8.01265 33.4118 5.84988 28.4991 5.3863C23.5864 4.92272 18.6659 6.18737 14.5856 8.9623L26.818 21.2H33.125L33.3635 21.2212C33.669 21.2765 33.9454 21.4374 34.1444 21.6756C34.3434 21.9139 34.4524 22.2145 34.4524 22.525C34.4524 22.8355 34.3434 23.1361 34.1444 23.3744C33.9454 23.6126 33.669 23.7735 33.3635 23.8288L33.125 23.85Z" fill="var(--fill-0, #EF9180)"/>
</g>
</svg>
