<svg preserveAspectRatio="none" width="100%" height="100%" overflow="visible" style="display: block;" viewBox="0 0 28 28" fill="none" xmlns="http://www.w3.org/2000/svg">
<g id="academicons:preregistered">
<path id="Vector" d="M13.9982 0.4375C13.2096 0.4375 12.417 0.610695 11.8193 0.957578L3.79542 5.58945C2.59481 6.28261 1.61345 7.98224 1.61345 9.36748V18.6326C1.61345 20.0182 2.59481 21.7184 3.79548 22.4112L11.8193 27.044C12.417 27.3899 13.2095 27.5626 13.9982 27.5626C14.7904 27.5626 15.5825 27.3899 16.1802 27.044L24.2041 22.4112C25.4029 21.7184 26.3866 20.0182 26.3866 18.6326V9.36742C26.3866 7.98219 25.4029 6.2825 24.2041 5.58939L16.1802 0.957633C15.5825 0.610695 14.7904 0.4375 13.9982 0.4375ZM19.4226 8.3329C19.6538 8.3329 19.8847 8.42051 20.0598 8.59611L21.0358 9.57102C21.3859 9.92255 21.3859 10.4973 21.0358 10.8485L12.4808 19.4044C12.1272 19.7553 11.5545 19.7553 11.2044 19.4044L7.43411 15.6357C7.084 15.2849 7.15827 14.6362 7.43411 14.3593L8.41055 13.3843C8.76072 13.0328 9.33696 13.0328 9.68701 13.3843L11.2044 14.9006C11.5545 15.2514 12.1272 15.2514 12.4808 14.9006L18.7827 8.59611C18.9528 8.42716 19.1828 8.33251 19.4225 8.3329" fill="var(--fill-0, #EF9180)"/>
</g>
</svg>
