<svg preserveAspectRatio="none" width="100%" height="100%" overflow="visible" style="display: block;" viewBox="0 0 53 53" fill="none" xmlns="http://www.w3.org/2000/svg">
<g id="game-icons:card-random">
<path id="Vector" d="M40.0282 50.4897L27.6855 44.7526C26.8679 44.3724 26.5122 43.4002 26.8925 42.5813L35.6266 23.7908C36.0061 22.9726 36.9795 22.6175 37.7966 22.9971L50.1398 28.7354C50.9575 29.1156 51.3126 30.0879 50.9323 30.9055L42.1987 49.6961C41.8179 50.5143 40.8452 50.8693 40.0282 50.4897ZM10.2429 48.4396L2.04857 29.4078C1.69165 28.5789 2.07497 27.6167 2.90258 27.2604L6.95998 25.5139L12.0297 44.5653C12.5156 46.386 14.3852 47.4719 16.2075 46.9866L20.248 45.9115L12.3904 49.295C11.5616 49.6514 10.6 49.2686 10.2431 48.4397L10.2429 48.4396ZM13.751 44.1065L8.42224 24.0817C8.19036 23.2101 8.71001 22.3138 9.58058 22.0826L13.1035 21.1456L12.6793 24.2992C12.4286 26.1662 13.7377 27.8862 15.6073 28.1382L23.8707 29.2519L20.5068 40.5834C20.1605 41.7511 20.4685 42.9589 21.2175 43.811L15.7498 45.2654C14.8782 45.4973 13.9829 44.9787 13.751 44.1065ZM24.975 43.6137L23.3167 43.121C22.4513 42.8632 21.9586 41.9547 22.2149 41.0893L28.1122 21.2246C28.3693 20.3592 29.2798 19.8665 30.1433 20.1222L35.2232 21.6318L35.224 21.6312L35.2364 21.6358L35.2226 21.6323C34.6957 21.9799 34.2761 22.4677 34.011 23.0406L25.2763 41.8318C25.0175 42.388 24.9133 43.0037 24.9746 43.6141L24.975 43.6137ZM24.3842 27.5243L15.8457 26.3735C14.952 26.2528 14.3236 25.4294 14.4443 24.5353L17.2112 3.99881C17.3313 3.10516 18.1558 2.47734 19.0476 2.59741L32.5385 4.41546C33.4315 4.53616 34.0593 5.36004 33.9393 6.25307L32.2368 18.8875L30.6499 18.4163C28.8418 17.8783 26.9414 18.9115 26.4054 20.7176L24.3842 27.5243ZM23.847 24.2677C24.3304 23.9514 24.6207 23.4977 24.7186 22.907C24.8155 22.3239 24.6816 21.8079 24.3184 21.3599C23.9551 20.903 23.4499 20.6208 22.8013 20.5134C22.1446 20.404 21.5663 20.5058 21.0674 20.8194C20.5678 21.133 20.2712 21.5767 20.1756 22.1516C20.0827 22.7092 20.2196 23.2303 20.5866 23.7128C20.9556 24.1791 21.469 24.467 22.1251 24.5762C22.7824 24.6855 23.3563 24.5826 23.847 24.2677ZM26.5361 15.8578C27.0219 15.5756 27.4562 15.2953 27.8402 15.0175C28.2235 14.7397 28.556 14.4393 28.8376 14.1144C29.1177 13.7923 29.3522 13.4333 29.5346 13.0474C29.7167 12.6603 29.8501 12.216 29.9331 11.7157C30.0637 10.9269 30.0387 10.2294 29.857 9.62116C29.6759 9.01352 29.3712 8.4887 28.9427 8.04565C28.5146 7.60364 27.9862 7.24309 27.357 6.96598C26.7287 6.68814 26.0316 6.48639 25.2687 6.35938C24.4724 6.22688 23.6849 6.19355 22.907 6.25824C22.1289 6.3218 21.3925 6.49084 20.6973 6.7634L20.0814 10.4695C20.7867 10.0295 21.5068 9.73409 22.2402 9.58265C22.9741 9.42986 23.6612 9.40681 24.3015 9.5135C26.5237 9.93709 26.3139 12.0908 25.2083 13.0361C24.6233 13.4992 24.0351 13.9473 23.5581 14.2105C22.4732 14.8227 20.6917 16.6043 21.2246 18.8837L24.463 19.4222C23.727 17.5841 25.6703 16.3724 26.5362 15.8578H26.5361Z" fill="var(--fill-0, #EF9180)"/>
</g>
</svg>
