<svg preserveAspectRatio="none" width="100%" height="100%" overflow="visible" style="display: block;" viewBox="0 0 53 53" fill="none" xmlns="http://www.w3.org/2000/svg">
<g id="streamline:controller-1-solid">
<path id="Vector" fill-rule="evenodd" clip-rule="evenodd" d="M4.55421 19.5684L2.968 33.8443C2.73991 35.8813 3.23616 37.9335 4.36974 39.6412C5.50332 41.3489 7.20187 42.6031 9.16758 43.1838C11.1333 43.7645 13.2407 43.6348 15.1203 42.8172C16.9999 41.9997 18.5317 40.5466 19.4472 38.7127L20.8214 35.9643H32.1786L33.5528 38.7127C34.4683 40.5466 36.0001 41.9997 37.8797 42.8172C39.7593 43.6348 41.8667 43.7645 43.8324 43.1838C45.7981 42.6031 47.4967 41.3489 48.6303 39.6412C49.7638 37.9335 50.2601 35.8813 50.032 33.8443L48.442 19.5684C48.1337 16.7914 46.8126 14.2255 44.7313 12.3614C42.65 10.4973 39.9546 9.46585 37.1606 9.46428H15.847C13.0517 9.46399 10.3544 10.4946 8.27151 12.3589C6.18862 14.2231 4.86642 16.7901 4.558 19.5684M16.5663 16.5625C17.8724 16.5625 18.9324 17.6225 18.9324 18.9286V20.9804H20.9842C21.6117 20.9804 22.2136 21.2297 22.6573 21.6734C23.101 22.1172 23.3503 22.719 23.3503 23.3465C23.3503 23.974 23.101 24.5758 22.6573 25.0196C22.2136 25.4633 21.6117 25.7126 20.9842 25.7126H18.9286V27.7606C18.9286 28.3882 18.6793 28.99 18.2356 29.4337C17.7918 29.8774 17.19 30.1267 16.5625 30.1267C15.935 30.1267 15.3332 29.8774 14.8894 29.4337C14.4457 28.99 14.1964 28.3882 14.1964 27.7606V25.7126H12.1446C11.517 25.7126 10.9152 25.4633 10.4715 25.0196C10.0278 24.5758 9.7785 23.974 9.7785 23.3465C9.7785 22.719 10.0278 22.1172 10.4715 21.6734C10.9152 21.2297 11.517 20.9804 12.1446 20.9804H14.1964V18.9286C14.1964 17.6225 15.2602 16.5625 16.5663 16.5625ZM35.0746 28.0786C35.7022 28.0786 36.304 27.8294 36.7477 27.3856C37.1914 26.9419 37.4407 26.3401 37.4407 25.7126C37.4407 25.085 37.1914 24.4832 36.7477 24.0395C36.304 23.5958 35.7022 23.3465 35.0746 23.3465C34.4471 23.3465 33.8453 23.5958 33.4016 24.0395C32.9579 24.4832 32.7086 25.085 32.7086 25.7126C32.7086 26.3401 32.9579 26.9419 33.4016 27.3856C33.8453 27.8294 34.4471 28.0786 35.0746 28.0786ZM42.1766 19.8447C42.1766 20.4722 41.9274 21.0741 41.4836 21.5178C41.0399 21.9615 40.4381 22.2108 39.8106 22.2108C39.1831 22.2108 38.5812 21.9615 38.1375 21.5178C37.6938 21.0741 37.4445 20.4722 37.4445 19.8447C37.4445 19.2172 37.6938 18.6154 38.1375 18.1716C38.5812 17.7279 39.1831 17.4786 39.8106 17.4786C40.4381 17.4786 41.0399 17.7279 41.4836 18.1716C41.9274 18.6154 42.1766 19.2172 42.1766 19.8447Z" fill="var(--fill-0, #EF9180)"/>
</g>
</svg>
