<svg width="28" height="28" viewBox="0 0 28 28" fill="none" xmlns="http://www.w3.org/2000/svg">
<g clip-path="url(#clip0_39194_214)">
<path d="M0 14.2798C0 16.5169 0.525538 18.6348 1.46174 20.5144C1.61108 20.816 1.62544 21.2654 1.45456 21.9647C1.36408 22.3179 1.25869 22.6672 1.13867 23.0115L1.09559 23.1349C0.989333 23.4508 0.874462 23.7955 0.788308 24.1157C0.239795 26.1647 2.11508 28.04 4.16267 27.4915C4.48431 27.4053 4.82749 27.2904 5.14482 27.1842L5.26831 27.1411C5.61262 27.0211 5.96185 26.9157 6.31508 26.8252C7.01436 26.6529 7.4638 26.6673 7.76533 26.818C9.70182 27.7829 11.8365 28.2834 14 28.2798C21.7323 28.2798 28 22.0121 28 14.2798C28 6.54747 21.7323 0.279785 14 0.279785C6.26769 0.279785 0 6.54747 0 14.2798ZM10.3672 10.647C10.5691 10.4453 10.8428 10.332 11.1282 10.332C11.4136 10.332 11.6873 10.4453 11.8892 10.647L14 12.7577L16.1108 10.647C16.2094 10.5412 16.3283 10.4563 16.4604 10.3974C16.5925 10.3386 16.7351 10.3069 16.8797 10.3044C17.0243 10.3018 17.1679 10.3284 17.302 10.3826C17.4361 10.4367 17.5579 10.5174 17.6602 10.6196C17.7624 10.7219 17.843 10.8437 17.8972 10.9778C17.9514 11.1119 17.978 11.2555 17.9754 11.4001C17.9729 11.5447 17.9412 11.6873 17.8824 11.8194C17.8235 11.9515 17.7386 12.0704 17.6328 12.169L15.5221 14.2798L17.6328 16.3905C17.7386 16.4891 17.8235 16.608 17.8824 16.7401C17.9412 16.8722 17.9729 17.0148 17.9754 17.1594C17.978 17.304 17.9514 17.4477 17.8972 17.5818C17.843 17.7159 17.7624 17.8377 17.6602 17.9399C17.5579 18.0422 17.4361 18.1228 17.302 18.177C17.1679 18.2311 17.0243 18.2577 16.8797 18.2552C16.7351 18.2526 16.5925 18.221 16.4604 18.1621C16.3283 18.1033 16.2094 18.0184 16.1108 17.9126L14 15.8018L11.8892 17.9126C11.7906 18.0184 11.6717 18.1033 11.5396 18.1621C11.4075 18.221 11.2649 18.2526 11.1203 18.2552C10.9757 18.2577 10.8321 18.2311 10.698 18.177C10.5639 18.1228 10.4421 18.0422 10.3398 17.9399C10.2376 17.8377 10.157 17.7159 10.1028 17.5818C10.0486 17.4477 10.022 17.304 10.0246 17.1594C10.0271 17.0148 10.0588 16.8722 10.1176 16.7401C10.1765 16.608 10.2614 16.4891 10.3672 16.3905L12.4779 14.2798L10.3672 12.169C10.1655 11.9671 10.0522 11.6934 10.0522 11.408C10.0522 11.1226 10.1655 10.8489 10.3672 10.647Z" fill="#EF9180"/>
</g>
<defs>
<clipPath id="clip0_39194_214">
<rect width="28" height="28" fill="white"/>
</clipPath>
</defs>
</svg>
