<svg version="1.1" class="centered-image-mobile" id="Calque_JOVENA" xmlns="http://www.w3.org/2000/svg" xmlns:xlink="http://www.w3.org/1999/xlink" x="0px" y="0px" width="160px" viewBox="0 0 158.78 44.39" style="enable-background:new 0 0 158.78 44.39;/* margin-top:50px; */" xml:space="preserve">
													<style type="text/css">
														.jovst0{fill:url(#SVGJOVENA_1_);}
														.jovst1{fill:url(#SVGJOVENA_2_);}
														.jovst2{fill:url(#SVGJOVENA_3_);}
														.jovst3{fill:url(#SVGJOVENA_4_);}
														.jovst4{fill:url(#SVGJOVENA_5_);}
														.jovst5{fill:url(#SVGJOVENA_6_);}
														.jovst6{fill:url(#SVGJOVENA_7_);}
														.jovst7{fill:url(#_x3C_Tracé_x3E__1_);}
													</style>
													<linearGradient id="SVGJOVENA_1_" gradientUnits="userSpaceOnUse" x1="0.3" y1="26.92" x2="19.0854" y2="26.92" gradientTransform="matrix(1 0 0 -1 0 46)">
														<stop offset="0" style="stop-color:#D72A17"></stop>
														<stop offset="0.4475" style="stop-color:#CB2418"></stop>
														<stop offset="1" style="stop-color:#B7191A"></stop>
													</linearGradient>
													<path class="jovst0" d="M18.98,17.91c0,0.27-0.14,0.52-0.35,0.68L2.21,30.31c-0.23,0.18-0.51,0.28-0.82,0.28H0.04V7.57h1.35
														c0.25,0,0.48,0.07,0.68,0.18l16.48,9.42C18.81,17.31,18.98,17.59,18.98,17.91z"></path>
													<linearGradient id="SVGJOVENA_2_" gradientUnits="userSpaceOnUse" x1="19.0309" y1="23.61" x2="44.1456" y2="23.61" gradientTransform="matrix(1 0 0 -1 0 46)">
														<stop offset="0" style="stop-color:#D72A17"></stop>
														<stop offset="0.4475" style="stop-color:#CB2418"></stop>
														<stop offset="1" style="stop-color:#B7191A"></stop>
													</linearGradient>
													<path class="jovst1" d="M44.28,1.55v24.2c0,0.45-0.22,0.85-0.55,1.1l-22.6,16.13c-0.21,0.16-0.48,0.25-0.78,0.25H19V19.02
														c0-0.45,0.22-0.85,0.56-1.09L42.14,1.79c0.22-0.15,0.49-0.24,0.78-0.24H44.28z"></path>
													<linearGradient id="SVGJOVENA_3_" gradientUnits="userSpaceOnUse" x1="55.9544" y1="24.69" x2="150.3857" y2="24.69" gradientTransform="matrix(1 0 0 -1 0 46)">
														<stop offset="0" style="stop-color:#D72A17"></stop>
														<stop offset="0.2869" style="stop-color:#A62F35"></stop>
														<stop offset="0.939" style="stop-color:#2A3C82"></stop>
														<stop offset="1" style="stop-color:#1E3D89"></stop>
													</linearGradient>
													<path class="jovst2" d="M68.06,10.31H67.8c-6.7,0.06-10.59,4.74-10.62,10.93v0.15c0.03,6.21,3.94,10.89,10.67,10.92h0.16
														c6.76-0.03,10.67-4.75,10.67-11C78.68,15.09,74.79,10.37,68.06,10.31z M67.93,27.66c-3.61,0-5.44-3.07-5.44-6.35
														s1.83-6.35,5.44-6.35s5.44,3.07,5.44,6.35S71.54,27.66,67.93,27.66z"></path>
													<linearGradient id="SVGJOVENA_4_" gradientUnits="userSpaceOnUse" x1="55.9465" y1="24.69" x2="150.4016" y2="24.69" gradientTransform="matrix(1 0 0 -1 0 46)">
														<stop offset="0" style="stop-color:#D72A17"></stop>
														<stop offset="0.2869" style="stop-color:#A62F35"></stop>
														<stop offset="0.939" style="stop-color:#2A3C82"></stop>
														<stop offset="1" style="stop-color:#1E3D89"></stop>
													</linearGradient>
													<path class="jovst3" d="M113.68,25.62c-0.34-0.18-0.73-0.28-1.14-0.28c-0.6,0-1.14,0.22-1.56,0.58c-0.94,0.84-2.49,1.74-5,1.74
														c-2.73,0-5.35-2.03-5.43-5.14h15.52c0-7.52-3.07-12.21-10.09-12.21c-6.8,0-10.75,4.73-10.75,11s3.95,11,10.75,11
														c5.73,0,8.77-2.73,10.34-5.14L113.68,25.62z M105.98,14.46c3.41,0,4.78,3.03,4.78,4.15h-10.21
														C101.09,16.37,103.04,14.46,105.98,14.46z"></path>
													<linearGradient id="SVGJOVENA_5_" gradientUnits="userSpaceOnUse" x1="55.9511" y1="21.2" x2="150.4011" y2="21.2" gradientTransform="matrix(1 0 0 -1 0 46)">
														<stop offset="0" style="stop-color:#D72A17"></stop>
														<stop offset="0.2869" style="stop-color:#A62F35"></stop>
														<stop offset="0.939" style="stop-color:#2A3C82"></stop>
														<stop offset="1" style="stop-color:#1E3D89"></stop>
													</linearGradient>
													<path class="jovst4" d="M55.72,10.81V34.1c0,3.94-3.53,4.69-7.01,4.69h-0.67v-4.65h0.21c0.83,0,2.41-0.25,2.41-1.74V12.89
														c0-1.15,0.93-2.08,2.08-2.08H55.72z"></path>
													<linearGradient id="SVGJOVENA_6_" gradientUnits="userSpaceOnUse" x1="55.9634" y1="24.69" x2="150.399" y2="24.69" gradientTransform="matrix(1 0 0 -1 0 46)">
														<stop offset="0" style="stop-color:#D72A17"></stop>
														<stop offset="0.2869" style="stop-color:#A62F35"></stop>
														<stop offset="0.939" style="stop-color:#2A3C82"></stop>
														<stop offset="1" style="stop-color:#1E3D89"></stop>
													</linearGradient>
													<path class="jovst5" d="M146.92,10.31c-4.6,0-8.96,1.91-8.96,6.85h3.13c1,0,1.86-0.6,2.22-1.47c0.23-0.52,0.62-0.89,1.21-1.13
														c0.58-0.24,1.37-0.35,2.4-0.35c2.2,0,3.99,0.59,3.99,2.66v0.62c-1.29,0.46-3.65,0.87-5.48,1.25l-2.12,0.41
														c-3.11,0.63-6.39,2.45-6.39,6.56c0,4.07,3.15,6.6,7.14,6.6c2.61,0,4.9-0.83,6.85-2.41v1.92h5.06V17.2
														C155.97,11.23,151.45,10.31,146.92,10.31z M150.91,24.3c0,2.7-3.03,3.86-5.4,3.86c-1.82,0-3.28-1.04-3.28-2.61
														c0-2,1.58-2.54,3.49-2.91l2.78-0.58c0.91-0.17,1.74-0.41,2.41-0.75L150.91,24.3L150.91,24.3z"></path>
													<linearGradient id="SVGJOVENA_7_" gradientUnits="userSpaceOnUse" x1="55.9519" y1="24.935" x2="150.4052" y2="24.935" gradientTransform="matrix(1 0 0 -1 0 46)">
														<stop offset="0" style="stop-color:#D72A17"></stop>
														<stop offset="0.2869" style="stop-color:#A62F35"></stop>
														<stop offset="0.939" style="stop-color:#2A3C82"></stop>
														<stop offset="1" style="stop-color:#1E3D89"></stop>
													</linearGradient>
													<path class="jovst6" d="M135.55,17.45v14.37h-5.07V18.99c0-1.91-0.87-3.78-3.48-3.78c-2.45,0-4.49,1.66-4.49,5.52v8.73
														c-0.04,1.31-1.11,2.36-2.42,2.36h-2.64V10.81h5.06v2.07h0.09c1.49-1.82,3.69-2.57,5.72-2.57C133.31,10.31,135.55,12.84,135.55,17.45
														z"></path>
													<linearGradient id="_x3C_Tracé_x3E__1_" gradientUnits="userSpaceOnUse" x1="55.95" y1="24.685" x2="150.4139" y2="24.685" gradientTransform="matrix(1 0 0 -1 0 46)">
														<stop offset="0" style="stop-color:#D72A17"></stop>
														<stop offset="0.2869" style="stop-color:#A62F35"></stop>
														<stop offset="0.939" style="stop-color:#2A3C82"></stop>
														<stop offset="1" style="stop-color:#1E3D89"></stop>
													</linearGradient>
													<path id="_x3C_Tracé_x3E_" class="jovst7" d="M96.57,10.81l-6.44,19.5c-0.38,0.88-1.26,1.51-2.28,1.51h-3.53l-0.57-1.75l-6.36-19.26
														h5.35l0.46,1.59l3.74,12.94h0.08l3.71-12.85c0.3-0.97,1.21-1.67,2.28-1.67v-0.01C93.01,10.81,96.57,10.81,96.57,10.81z"></path>
											</svg>