<svg width="346" height="105" viewBox="0 0 346 105" fill="none" xmlns="http://www.w3.org/2000/svg">
<path d="M77.2988 70.1099C66.4167 70.0667 57.4271 60.9575 57.4271 49.517C57.4271 38.0765 66.4167 28.9672 77.2988 28.9241C88.181 28.9672 97.1705 38.0333 97.1705 49.517C97.1705 60.9575 88.181 70.0667 77.2988 70.1099ZM105.945 49.4738C105.902 33.3276 93.1704 20.117 77.2558 20.0739C61.3413 20.0739 48.6096 33.3276 48.5666 49.4738C48.6096 65.62 61.2982 78.8737 77.2558 78.8737C84.9981 78.8737 92.0091 75.679 97.1275 70.5848V74.2112C97.1275 76.6288 99.1061 78.6147 101.515 78.6147C103.923 78.6147 105.902 76.6288 105.902 74.2112L105.945 49.4738Z" fill="white"/>
<path d="M42.3242 70.1108H41.851C30.9259 70.0677 21.9363 60.9584 21.9363 49.4748V28.7955H32.8184C35.2701 28.7955 37.2057 26.8096 37.2057 24.392C37.2057 21.9312 35.2271 19.9885 32.8184 19.9885H21.9793V4.40352C21.9793 1.94273 20.0007 0 17.5921 0C15.1403 0 13.2048 1.9859 13.2048 4.40352V19.9885H4.38726C1.97857 19.9885 0 21.9744 0 24.392C0 26.8096 1.97857 28.7955 4.38726 28.7955H13.2048L13.1618 49.4748C13.2048 65.621 25.8934 78.8747 41.851 78.8747H42.3242C44.7328 78.8747 46.7114 76.8888 46.7114 74.4712C46.7114 72.0536 44.7328 70.1108 42.3242 70.1108Z" fill="white"/>
<path d="M174.4 49.4581C174.4 38.363 168.335 28.6061 159.432 23.6414L158.872 23.3824C158.227 23.037 157.582 22.6916 156.937 22.4326L156.12 22.1304C155.517 21.8714 154.915 21.6555 154.313 21.4396C153.969 21.3101 153.582 21.267 153.238 21.1374C152.679 20.9648 152.119 20.7921 151.56 20.7057C151.216 20.6194 150.829 20.5762 150.442 20.533C148.937 20.274 147.345 20.1013 145.754 20.1013C144.162 20.1013 142.571 20.274 141.065 20.533C140.678 20.5762 140.334 20.6194 139.947 20.7057C139.388 20.8352 138.829 21.0079 138.269 21.1374C137.882 21.2238 137.538 21.3101 137.194 21.4396C136.463 21.6555 135.775 21.9577 135.087 22.2167L134.57 22.4326C133.882 22.7348 133.194 23.0802 132.549 23.4255L132.076 23.6414C123.086 28.6493 117.107 38.363 117.064 49.4581V74.4545C117.064 76.8721 119.043 78.858 121.452 78.858C123.86 78.858 125.839 76.8721 125.839 74.4545V71.3893V49.9761C125.839 49.9761 125.968 46.6087 126.226 45.2704C128.119 35.859 136.162 28.8652 145.711 28.8652C155.259 28.8652 163.303 35.859 165.195 45.2704C165.453 46.6087 165.539 50.1057 165.496 50.451L165.582 71.3893V74.4545C165.582 76.8721 167.561 78.858 169.97 78.858C172.378 78.858 174.357 76.8721 174.357 74.4545L174.4 49.4581Z" fill="white"/>
<path d="M310.49 77.4566C312.856 73.5712 314.447 70.6355 315.265 68.6496C317.716 62.5192 318.964 52.6761 318.964 49.6972C318.964 46.7184 317.716 36.7025 315.222 30.6585C314.361 28.6294 312.813 25.6506 310.49 21.7219L310.404 21.6356C310.791 20.8153 311.565 20.2541 312.512 20.2541C313.458 20.2541 314.103 20.8585 314.834 21.5924L314.963 21.7219C317.286 23.9237 319.437 27.0752 321.415 31.2197C322.663 33.81 323.652 36.832 324.383 40.2858C325.114 43.7395 325.501 47.0637 325.501 50.2584C325.501 55.3959 324.555 60.4038 322.706 65.239C320.813 70.0743 318.232 74.1756 314.963 77.4998L314.877 77.6293C314.146 78.3201 313.501 78.9676 312.555 78.9676C311.608 78.9676 310.834 78.4064 310.447 77.6293L310.49 77.4566Z" fill="#BCFC32"/>
<path d="M330.38 77.4566C332.746 73.5711 334.337 70.6355 335.154 68.6496C337.606 62.5192 338.853 52.7192 338.853 49.6972C338.853 46.6752 337.606 36.7025 335.111 30.6585C334.251 28.6294 332.703 25.6506 330.38 21.7219L330.251 21.4197C330.595 20.5995 331.283 20.1678 332.23 20.1678C333.176 20.1678 333.821 20.7722 334.552 21.5061L334.724 21.6356L334.853 21.7651C337.176 23.9669 339.327 27.1184 341.305 31.2629C342.553 33.8532 343.542 36.8752 344.273 40.3289C345.047 43.7827 345.391 47.1069 345.391 50.3016C345.391 55.439 344.445 60.4469 342.596 65.2822C340.703 70.1174 338.122 74.2187 334.853 77.5429L334.767 77.6725C334.036 78.3632 333.391 79.0108 332.445 79.0108C331.498 79.0108 330.767 78.5791 330.423 77.7588L330.38 77.4566Z" fill="#BCFC32"/>
<path d="M258.154 49.5156C258.154 60.9561 267.143 70.0653 278.025 70.1085C288.908 70.0653 297.897 60.9561 297.897 49.5156C297.897 38.0751 288.908 28.9659 278.025 28.9227C267.143 28.9659 258.154 38.0751 258.154 49.5156ZM249.379 49.5156C249.422 33.3694 262.154 20.1157 278.068 20.1157C293.983 20.1157 306.715 33.3694 306.758 49.5156C306.715 65.6618 294.026 78.9155 278.068 78.9155C262.154 78.9155 249.422 65.705 249.379 49.5156Z" fill="#BCFC32"/>
<path d="M211.888 70.0574C201.006 70.0574 192.016 60.905 192.016 49.4645C192.016 38.024 201.006 28.9148 211.888 28.8716C222.77 28.8716 231.76 38.024 231.76 49.4645C231.76 60.905 222.813 70.0142 211.888 70.0574ZM240.577 49.4645V49.3782V48.7738L240.534 48.6011C240.061 32.8434 227.545 20.0646 211.888 20.0646C195.974 20.0646 183.242 33.3183 183.199 49.4645C183.242 65.6107 195.974 78.8644 211.888 78.8644C219.673 78.8644 226.641 75.7129 231.76 70.5755V75.4971C231.717 86.3331 222.899 95.1833 211.888 95.1833C203.974 95.1833 197.221 94.6653 193.995 88.1464C192.92 85.9446 190.296 85.0812 188.102 86.1605C185.909 87.2398 185.048 89.8732 186.124 92.075C190.769 101.573 200.576 104.034 211.931 104.034C227.717 103.99 240.577 91.3411 240.577 75.5402V49.5509V49.4645Z" fill="#BCFC32"/>
</svg>
