<svg version="1.1" class="centered-image-mobile" id="Calque_NextA" xmlns="http://www.w3.org/2000/svg" xmlns:xlink="http://www.w3.org/1999/xlink" x="0px" y="0px" width="105px" viewBox="0 0 137.33 80.89" style="enable-background:new 0 0 137.33 80.89;/* margin-top:40px; */" xml:space="preserve">
												<style type="text/css">
													.NextAst0{fill:#646464;}
													.NextAst1{fill:#FFCD00;}
												</style>
												<g>
													<path class="NextAst0" d="M12.24,60.49v0.39h-0.42v-0.42c0-0.39-0.14-0.63-0.46-0.63c-0.32,0-0.46,0.24-0.46,0.63v2.31
														c0,0.39,0.15,0.63,0.46,0.63c0.32,0,0.46-0.24,0.46-0.63v-0.57h0.42v0.54c0,0.66-0.28,1.1-0.89,1.1c-0.6,0-0.89-0.44-0.89-1.1
														v-2.26c0-0.66,0.28-1.1,0.89-1.1C11.96,59.39,12.24,59.83,12.24,60.49"></path>
													<path class="NextAst0" d="M16.5,60.49v0.39h-0.42v-0.42c0-0.39-0.14-0.63-0.46-0.63c-0.32,0-0.46,0.24-0.46,0.63v2.31
														c0,0.39,0.15,0.63,0.46,0.63c0.32,0,0.46-0.24,0.46-0.63v-0.57h0.42v0.54c0,0.66-0.28,1.1-0.89,1.1c-0.6,0-0.89-0.44-0.89-1.1
														v-2.26c0-0.66,0.28-1.1,0.89-1.1C16.22,59.39,16.5,59.83,16.5,60.49"></path>
													<polygon class="NextAst0" points="20.42,61.37 20.42,61.81 19.46,61.81 19.46,63.36 20.64,63.36 20.64,63.81 19.02,63.81 19.02,59.43 
														20.64,59.43 20.64,59.88 19.46,59.88 19.46,61.37 	"></polygon>
													<polygon class="NextAst0" points="23.17,63.81 23.17,59.43 23.61,59.43 23.61,63.36 24.73,63.36 24.73,63.81 	"></polygon>
													<polygon class="NextAst0" points="28.59,61.37 28.59,61.81 27.62,61.81 27.62,63.36 28.81,63.36 28.81,63.81 27.18,63.81 27.18,59.43 
														28.81,59.43 28.81,59.88 27.62,59.88 27.62,61.37 	"></polygon>
													<path class="NextAst0" d="M32.21,59.43c0.62,0,0.88,0.35,0.88,1v0.36c0,0.48-0.15,0.78-0.49,0.9c0.36,0.12,0.5,0.44,0.5,0.91v0.68
														c0,0.19,0.01,0.37,0.08,0.52h-0.45c-0.05-0.13-0.07-0.24-0.07-0.53v-0.69c0-0.49-0.21-0.65-0.58-0.65h-0.31v1.87h-0.44v-4.37H32.21
														z M32.1,61.5c0.35,0,0.56-0.13,0.56-0.6v-0.42c0-0.39-0.13-0.6-0.46-0.6h-0.43v1.62H32.1z"></path>
													<path class="NextAst0" d="M36.12,62.93l-0.15,0.88h-0.41l0.76-4.37h0.64l0.76,4.37h-0.44l-0.15-0.88H36.12z M36.17,62.51h0.88
														l-0.45-2.52L36.17,62.51z"></path>
													<polygon class="NextAst0" points="40.75,63.81 40.75,59.88 40.02,59.88 40.02,59.43 41.91,59.43 41.91,59.88 41.19,59.88 41.19,63.81 	
														"></polygon>
													<path class="NextAst0" d="M44.3,60.49c0-0.67,0.3-1.1,0.9-1.1c0.61,0,0.91,0.43,0.91,1.1v2.26c0,0.66-0.3,1.1-0.91,1.1
														c-0.6,0-0.9-0.44-0.9-1.1V60.49z M44.74,62.78c0,0.4,0.15,0.63,0.47,0.63c0.32,0,0.47-0.23,0.47-0.63v-2.31
														c0-0.39-0.15-0.63-0.47-0.63c-0.32,0-0.47,0.24-0.47,0.63V62.78z"></path>
													<path class="NextAst0" d="M49.53,59.43c0.62,0,0.88,0.35,0.88,1v0.36c0,0.48-0.15,0.78-0.49,0.9c0.36,0.12,0.5,0.44,0.5,0.91v0.68
														c0,0.19,0.01,0.37,0.08,0.52h-0.45c-0.05-0.13-0.07-0.24-0.07-0.53v-0.69c0-0.49-0.21-0.65-0.58-0.65h-0.31v1.87h-0.44v-4.37H49.53
														z M49.42,61.5c0.35,0,0.56-0.13,0.56-0.6v-0.42c0-0.39-0.13-0.6-0.46-0.6h-0.43v1.62H49.42z"></path>
													<path class="NextAst0" d="M6.93,59.98l0.44,2.52H6.5L6.93,59.98z M6.64,59.43l-0.76,4.37h0.41l0.15-0.88h1l0.15,0.88h0.44l-0.76-4.37
														H6.64z"></path>
													<path class="NextAst0" d="M130.33,41.56c0,19.71-15.97,35.68-35.68,35.68c-10.58,0-20.09-4.6-26.62-11.92
														c-0.16-0.17-0.31-0.34-0.45-0.52c-0.42-0.57-0.66-1.29-0.66-2.05c0-1.95,1.58-3.52,3.52-3.52c0.87,0,1.67,0.32,2.28,0.84
														c0.22,0.27,0.45,0.53,0.69,0.79c0.01,0,0.01,0.01,0.01,0.01c5.25,5.77,12.82,9.39,21.24,9.39c15.85,0,28.7-12.85,28.7-28.7
														c0-15.85-12.85-28.7-28.7-28.7c-8.42,0-15.99,3.62-21.24,9.4l0,0c-0.23,0.25-0.45,0.51-0.67,0.77c-0.61,0.53-1.42,0.85-2.29,0.85
														c-1.95,0-3.52-1.58-3.52-3.52c0-0.73,0.22-1.41,0.6-1.97c0,0,0,0,0.01-0.01c0.18-0.22,0.37-0.44,0.57-0.65
														C74.62,10.45,84.1,5.87,94.65,5.87C114.36,5.87,130.33,21.85,130.33,41.56"></path>
													<path class="NextAst0" d="M106,36.81v14.74c0,0.41-0.08,0.81-0.22,1.18c-0.49,1.28-1.73,2.19-3.18,2.19H91.26
														c-3.82-0.29-6.95-3.07-7.76-6.72c-0.14-0.61-0.21-1.24-0.21-1.88c0-0.66,0.07-1.29,0.21-1.91c0.54-2.38,2.06-4.39,4.11-5.57
														c1.27-0.73,2.74-1.15,4.31-1.15h3.26l0.08,0.02c0.63,0.14,1.17,0.44,1.61,0.85c0.39,0.38,0.7,0.85,0.87,1.38
														c0.11,0.34,0.17,0.7,0.17,1.07c0,1.87-1.52,3.39-3.39,3.39h-2.6c0.02,0.01,0.03,0.02,0.05,0.03c-0.01,0-0.03,0-0.04,0
														c-1.04,0-1.88,0.84-1.88,1.88c0,1.04,0.84,1.88,1.88,1.88h5.34c0.08,0.01,0.16,0.02,0.23,0.02c0.08,0,0.16-0.01,0.24-0.02
														c0.87-0.11,1.54-0.86,1.54-1.76v-9.6c0-1.07-0.87-1.94-1.94-1.94h-5.71c-0.05,0-0.1,0-0.15-0.01c-1.8-0.08-3.24-1.57-3.24-3.39
														c0-1.6,1.09-2.97,2.65-3.31l0.09-0.02h6.4c1.17,0,2.28,0.23,3.3,0.66c2.11,0.87,3.8,2.56,4.68,4.67
														C105.77,34.53,106,35.64,106,36.81"></path>
													<path class="NextAst1" d="M33.44,38.19h-9.91l-12.08-9.25c-0.13-0.1-0.27-0.19-0.41-0.27c-0.02-0.02-0.04-0.03-0.07-0.04
														c-0.5-0.29-1.08-0.46-1.7-0.46c-1.87,0-3.39,1.52-3.39,3.39v19.98c0,1.87,1.52,3.39,3.39,3.39c1.87,0,3.39-1.52,3.39-3.39V38.41
														l7.32,5.6l0.01,0.01l0.62,0.47c0.3,0.18,0.65,0.32,1.01,0.4l0.08,0.02H34.1l0.09-0.02c1.56-0.34,2.65-1.71,2.65-3.31
														C36.83,39.71,35.31,38.19,33.44,38.19"></path>
													<path class="NextAst1" d="M79.38,28.17h-20.5l-0.06,0c-0.74,0.05-1.44,0.34-2.02,0.83l-0.02,0.02l-7.31,7.31
														c-0.1,0.1-0.22,0.12-0.28,0.12c-0.06,0-0.18-0.02-0.28-0.12l-7.47-7.47l-0.05-0.04c-0.52-0.38-1.14-0.6-1.79-0.65l-0.03,0H26.66
														c-1.67,0-3.11,1.24-3.36,2.88c-0.02,0.16-0.04,0.34-0.04,0.51c0,1.6,1.09,2.97,2.65,3.31L26,34.89h11.41
														c0.11,0,0.21,0.04,0.28,0.12l4.07,4.09l0.09,0.08c0.1,0.08,0.18,0.17,0.26,0.26l0.02,0.02l1.82,1.82c0.15,0.16,0.15,0.41,0,0.56
														l-1.67,1.67l-0.03,0.03c-0.05,0.06-0.1,0.12-0.16,0.18c-0.06,0.07-0.13,0.14-0.22,0.22l-4.14,4.14c-0.08,0.08-0.18,0.12-0.28,0.12
														h-10.8c-1.87,0-3.4,1.52-3.4,3.39c0,0.15,0.01,0.31,0.04,0.48c0.19,1.39,1.24,2.53,2.61,2.84L26,54.93h13.34
														c0.78,0,1.52-0.26,2.14-0.73c0.06-0.05,0.13-0.1,0.19-0.15l0.02-0.01l7.22-7.22c0.1-0.1,0.22-0.12,0.28-0.12
														c0.11,0,0.21,0.04,0.28,0.12l6.67,6.67c0.01,0.01,0.02,0.03,0.03,0.04c0.06,0.08,0.12,0.15,0.2,0.22l0.17,0.17
														c0.06,0.06,0.12,0.11,0.18,0.16c0.62,0.49,1.4,0.76,2.19,0.76c1.93,0,3.51-1.57,3.51-3.5c0-0.84-0.31-1.66-0.86-2.3
														c-0.05-0.06-0.11-0.13-0.17-0.18l-5.12-5.12c-0.01-0.01-0.05-0.06-0.05-0.06l-1.82-1.83c-0.15-0.15-0.15-0.41,0-0.56l6.27-6.27
														c0.07-0.07,0.18-0.12,0.28-0.12h5.68c0.22,0,0.4,0.18,0.4,0.4v15.84c0,0.02,0,0.03,0,0.05c-0.02,0.14-0.02,0.27-0.02,0.4
														c0,0.13,0.01,0.26,0.02,0.4c0.2,1.68,1.63,2.95,3.33,2.95c1.85,0,3.35-1.5,3.35-3.35V35.29c0-0.22,0.18-0.4,0.4-0.4h5.95l0.08-0.02
														c1.56-0.35,2.65-1.71,2.65-3.31C82.77,29.69,81.25,28.17,79.38,28.17"></path>
													<path class="NextAst0" d="M130.33,8.83c0,1.68-1.32,2.99-3.03,2.99c-1.69,0-3.05-1.32-3.05-2.99c0-1.64,1.35-2.96,3.05-2.96
														C129.02,5.87,130.33,7.19,130.33,8.83 M125.02,8.83c0,1.32,0.97,2.36,2.31,2.36c1.3,0,2.25-1.05,2.25-2.34
														c0-1.32-0.96-2.38-2.27-2.38C125.99,6.47,125.02,7.53,125.02,8.83 M126.84,10.38h-0.69V7.42c0.27-0.05,0.65-0.09,1.14-0.09
														c0.56,0,0.81,0.09,1.03,0.22c0.16,0.13,0.29,0.36,0.29,0.65c0,0.32-0.25,0.58-0.61,0.68v0.04c0.29,0.11,0.45,0.32,0.54,0.72
														c0.09,0.45,0.14,0.63,0.22,0.74h-0.74c-0.09-0.11-0.14-0.38-0.23-0.72c-0.06-0.32-0.24-0.47-0.61-0.47h-0.32V10.38z M126.85,8.7
														h0.32c0.38,0,0.69-0.13,0.69-0.43c0-0.27-0.2-0.45-0.63-0.45c-0.18,0-0.31,0.02-0.38,0.04V8.7z"></path>
												</g>
											</svg>