<svg width="166" height="50" viewBox="0 0 166 50" fill="none" xmlns="http://www.w3.org/2000/svg">
<path d="M37.156 33.6727C34.5836 33.6284 32.1337 32.5634 30.3428 30.7109C28.552 28.8585 27.5664 26.3697 27.6018 23.7898C27.564 21.2084 28.5486 18.7173 30.3397 16.8629C32.1307 15.0086 34.5821 13.9423 37.156 13.898C39.7299 13.9423 42.1812 15.0086 43.9723 16.8629C45.7634 18.7173 46.748 21.2084 46.7101 23.7898C46.7456 26.3697 45.7599 28.8585 43.9691 30.7109C42.1783 32.5634 39.7283 33.6284 37.156 33.6727ZM50.9349 23.7721C50.9679 20.0701 49.536 16.506 46.9532 13.8609C44.3704 11.2158 40.8472 9.70556 37.156 9.66113C33.4608 9.70556 29.9341 11.218 27.3494 13.8666C24.7646 16.5153 23.3329 20.0839 23.3683 23.7898C23.3353 27.495 24.7677 31.0623 27.352 33.7104C29.9362 36.3585 33.4616 37.8717 37.156 37.9184C40.7397 37.9085 44.174 36.4779 46.7101 33.9387V35.6671C46.7101 36.2289 46.9327 36.7677 47.3288 37.165C47.725 37.5623 48.2623 37.7855 48.8225 37.7855C49.3827 37.7855 49.92 37.5623 50.3161 37.165C50.7123 36.7677 50.9349 36.2289 50.9349 35.6671V23.7721Z" fill="#005CA9"/>
<path d="M20.3545 33.6819H20.1247C17.5508 33.6399 15.0986 32.5758 13.3059 30.7231C11.5131 28.8704 10.5263 26.3803 10.5617 23.7989V13.8539H15.7851C16.0629 13.8551 16.338 13.8011 16.5948 13.695C16.8517 13.589 17.085 13.433 17.2814 13.236C17.4778 13.0391 17.6333 12.8051 17.7391 12.5475C17.8448 12.29 17.8987 12.014 17.8975 11.7355C17.8987 11.4569 17.8448 11.1809 17.7391 10.9234C17.6333 10.6659 17.4778 10.4319 17.2814 10.2349C17.085 10.038 16.8517 9.88197 16.5948 9.77593C16.338 9.66988 16.0629 9.61589 15.7851 9.61706H10.5617V2.12727C10.564 1.84875 10.5114 1.57253 10.4067 1.31453C10.302 1.05654 10.1475 0.821889 9.95191 0.624118C9.75635 0.426347 9.52367 0.269393 9.2673 0.162271C9.01093 0.0551497 8.73592 -9.83319e-06 8.45819 1.31482e-09C8.18004 -2.44037e-06 7.90469 0.0550949 7.64783 0.162109C7.39097 0.269123 7.15771 0.425951 6.96144 0.623604C6.76518 0.821257 6.60974 1.05584 6.5041 1.31389C6.39847 1.57193 6.34472 1.84833 6.34588 2.12727V9.61706H2.11232C1.8346 9.61589 1.55942 9.66988 1.30262 9.77593C1.04581 9.88197 0.812447 10.038 0.616064 10.2349C0.419682 10.4319 0.264141 10.6659 0.1584 10.9234C0.0526585 11.1809 -0.00115072 11.4569 1.8658e-05 11.7355C1.8658e-05 12.2973 0.222566 12.8361 0.618708 13.2334C1.01485 13.6307 1.55209 13.8539 2.11232 13.8539H6.34588V23.79C6.30817 27.4942 7.73817 31.062 10.3218 33.7095C12.9053 36.357 16.4311 37.8677 20.1247 37.9098H20.3545C20.9147 37.9098 21.452 37.6866 21.8482 37.2893C22.2443 36.8921 22.4669 36.3533 22.4669 35.7914C22.4645 35.2311 22.2409 34.6946 21.845 34.2992C21.4492 33.9038 20.9132 33.6819 20.3545 33.6819Z" fill="#005CA9"/>
<path d="M83.8308 23.7721C83.8362 21.2498 83.1728 18.7714 81.9086 16.5909C80.6444 14.4103 78.8249 12.6061 76.6364 11.363L76.3625 11.2389C76.0531 11.0705 75.7526 10.911 75.4256 10.7691L75.0367 10.6273C74.7451 10.5121 74.4534 10.388 74.1529 10.2994C73.8524 10.2107 73.7994 10.2019 73.6314 10.1576C73.4635 10.1132 73.1011 10.0069 72.8272 9.94483C72.5532 9.88279 72.4737 9.89165 72.2969 9.86506C71.5529 9.73111 70.799 9.65996 70.0431 9.65234C69.2873 9.65996 68.5334 9.73111 67.7894 9.86506C67.6126 9.86506 67.427 9.86506 67.2591 9.94483C67.0911 10.0246 66.7199 10.0778 66.4548 10.1576C66.2786 10.1954 66.1045 10.2428 65.9333 10.2994C65.5886 10.4057 65.2528 10.5387 64.9169 10.6717L64.6695 10.7691C64.3336 10.9198 64.0154 11.0883 63.6973 11.2567L63.4586 11.363C61.2671 12.6025 59.445 14.406 58.1804 16.5873C56.9157 18.7687 56.2543 21.2489 56.2643 23.7721V35.7646C56.2643 36.3265 56.4868 36.8653 56.883 37.2626C57.2791 37.6599 57.8164 37.883 58.3766 37.883C58.6536 37.883 58.9279 37.8282 59.1836 37.7216C59.4394 37.6151 59.6717 37.4589 59.8672 37.2621C60.0626 37.0652 60.2174 36.8316 60.3225 36.5746C60.4277 36.3177 60.4813 36.0424 60.4801 35.7646V34.3021V24.0203C60.4801 24.0203 60.5508 22.4071 60.6746 21.7601C61.0993 19.5681 62.2614 17.5887 63.9666 16.1528C65.6719 14.717 67.8169 13.9116 70.0431 13.8714C72.2706 13.9038 74.4186 14.7065 76.1241 16.1438C77.8295 17.5812 78.9877 19.5651 79.4028 21.7601C79.5098 22.5799 79.56 23.4062 79.5531 24.233L79.5973 34.2844V35.7469C79.5973 36.3087 79.8198 36.8476 80.216 37.2449C80.6121 37.6421 81.1494 37.8653 81.7096 37.8653C82.2707 37.8653 82.8089 37.6424 83.2064 37.2454C83.6039 36.8484 83.8285 36.3096 83.8308 35.7469V23.781V23.7721Z" fill="#005CA9"/>
<path d="M149.217 37.2186C150.087 35.8688 150.849 34.4521 151.497 32.9818C152.523 30.0495 153.119 26.983 153.264 23.8788C153.122 20.7598 152.526 17.6783 151.497 14.7315C150.82 13.2573 150.062 11.8222 149.225 10.4326L149.172 10.3883C149.261 10.1925 149.404 10.0264 149.584 9.91006C149.764 9.79371 149.974 9.73203 150.189 9.73242C150.407 9.75644 150.618 9.82459 150.81 9.93275C151.001 10.0409 151.169 10.1868 151.302 10.3617L151.364 10.4326C152.661 11.7505 153.711 13.2905 154.466 14.9797C155.108 16.3769 155.588 17.843 155.898 19.3495C156.245 20.9215 156.426 22.5258 156.437 24.1359C156.439 26.5957 155.98 29.034 155.085 31.3243C154.262 33.5246 152.995 35.5311 151.364 37.2186V37.2718C151.231 37.4479 151.064 37.5953 150.872 37.7049C150.681 37.8146 150.47 37.8843 150.251 37.9099C150.036 37.9103 149.826 37.8487 149.646 37.7323C149.466 37.616 149.323 37.4499 149.234 37.254L149.217 37.2186Z" fill="#BCFC32"/>
<path d="M158.779 37.2184C159.649 35.8686 160.412 34.452 161.059 32.9816C162.087 30.0498 162.683 26.9831 162.827 23.8787C162.69 20.7589 162.094 17.6766 161.059 14.7314C160.386 13.2554 159.628 11.82 158.788 10.4325L158.726 10.273C158.802 10.0884 158.932 9.93162 159.1 9.82383C159.268 9.71604 159.464 9.66244 159.663 9.67024C159.883 9.69666 160.095 9.76669 160.288 9.87625C160.481 9.98581 160.65 10.1327 160.785 10.3084L160.865 10.3616L160.927 10.4325C162.226 11.748 163.277 13.2886 164.029 14.9796C164.671 16.3768 165.151 17.8429 165.461 19.3493C165.812 20.9206 165.993 22.5254 166 24.1357C166.001 26.5956 165.543 29.0339 164.648 31.3241C163.825 33.5245 162.558 35.531 160.927 37.2184V37.2716C160.792 37.4463 160.625 37.5927 160.433 37.7022C160.242 37.8117 160.032 37.8823 159.813 37.9098C159.608 37.9205 159.405 37.8687 159.229 37.7611C159.054 37.6535 158.916 37.4952 158.832 37.3071L158.779 37.2184Z" fill="#BCFC32"/>
<path d="M124.08 23.799C124.042 26.3804 125.027 28.8715 126.818 30.7258C128.609 32.5802 131.061 33.6465 133.634 33.6908C136.208 33.6465 138.66 32.5802 140.451 30.7258C142.242 28.8715 143.226 26.3804 143.189 23.799C143.224 21.2191 142.238 18.7303 140.448 16.8778C138.657 15.0254 136.207 13.9603 133.634 13.916C131.062 13.9603 128.612 15.0254 126.821 16.8778C125.03 18.7303 124.045 21.2191 124.08 23.799ZM119.847 23.799C119.814 20.0946 121.246 16.5283 123.831 13.8815C126.415 11.2348 129.941 9.72363 133.634 9.6792C137.328 9.72129 140.854 11.232 143.437 13.8795C146.021 16.527 147.451 20.0948 147.413 23.799C147.451 27.504 146.021 31.0727 143.438 33.7216C140.855 36.3705 137.329 37.8832 133.634 37.9276C129.94 37.8809 126.415 36.3677 123.83 33.7196C121.246 31.0715 119.814 27.5042 119.847 23.799Z" fill="#BCFC32"/>
<path d="M101.843 33.6639C99.2695 33.6196 96.8182 32.5533 95.0271 30.6989C93.2361 28.8446 92.2515 26.3535 92.2893 23.7721C92.2538 21.1922 93.2395 18.7034 95.0303 16.8509C96.8211 14.9985 99.2711 13.9334 101.843 13.8891C104.416 13.9334 106.866 14.9985 108.657 16.8509C110.447 18.7034 111.433 21.1922 111.398 23.7721C111.435 26.3535 110.451 28.8446 108.66 30.6989C106.869 32.5533 104.417 33.6196 101.843 33.6639ZM115.622 23.7721V23.4618V23.3732C115.556 19.7421 114.082 16.2796 111.513 13.7198C108.944 11.1601 105.482 9.70431 101.861 9.66113C98.1668 9.70555 94.6409 11.2183 92.0576 13.8672C89.4743 16.5161 88.0445 20.0847 88.0823 23.7898C88.0445 27.4948 89.4743 31.0635 92.0576 33.7124C94.6409 36.3613 98.1668 37.874 101.861 37.9184C105.444 37.9109 108.878 36.4835 111.415 33.9475V36.3141C111.407 37.5638 111.154 38.7997 110.669 39.9511C110.184 41.1024 109.478 42.1467 108.591 43.0242C107.704 43.9017 106.652 44.5953 105.498 45.0652C104.343 45.5351 103.107 45.7721 101.861 45.7628C98.0607 45.7628 94.7905 45.5235 93.2615 42.3769C93.1392 42.1271 92.9688 41.9041 92.7602 41.7206C92.5516 41.5372 92.3089 41.3969 92.046 41.3079C91.7831 41.219 91.5053 41.183 91.2285 41.2022C90.9517 41.2214 90.6814 41.2952 90.4333 41.4196C90.1842 41.5422 89.9618 41.7131 89.7789 41.9223C89.596 42.1315 89.4561 42.3749 89.3674 42.6386C89.2787 42.9022 89.2428 43.1808 89.2619 43.4584C89.281 43.736 89.3547 44.007 89.4787 44.2559C91.7148 48.8119 96.4344 49.9996 101.852 49.9996C103.653 50.0089 105.438 49.6623 107.106 48.9795C108.773 48.2967 110.29 47.291 111.569 46.0201C112.849 44.7492 113.866 43.2378 114.563 41.5724C115.26 39.907 115.623 38.1202 115.631 36.3141V23.7721H115.622Z" fill="#BCFC32"/>
</svg>
