<svg width="140" height="56" viewBox="0 0 140 56" fill="none" xmlns="http://www.w3.org/2000/svg">
<path d="M76.8439 50.4723V44.8242H79.8457C80.0858 44.8242 80.3259 44.8242 80.5661 45.0646C80.8062 45.0646 80.9263 45.4251 81.0463 45.5453C81.0463 45.7856 81.0463 46.0259 81.0463 46.2663C81.0463 46.747 81.0463 47.1075 80.5661 47.468C80.0858 47.8285 79.7256 47.9487 78.8851 47.9487H77.4443V50.2319H76.7239V50.4723H76.8439ZM77.5644 47.5882H79.0052C79.4855 47.5882 79.8457 47.5882 79.9657 47.3478C80.2059 47.3478 80.2059 46.8671 80.2059 46.6268C80.2059 46.3865 80.2059 46.1461 80.2059 46.0259C80.2059 45.9058 79.9657 45.7856 79.7256 45.6654H77.5644V47.7083V47.5882Z" fill="#804E3A"/>
<path d="M83.6877 50.4723L85.849 44.8242H86.6895L88.9708 50.4723H88.1303L87.5299 48.7899H85.2486L84.6483 50.4723H83.6877ZM85.2486 48.189H87.1697L86.5694 46.6268C86.5694 46.1461 86.2092 45.7856 86.2092 45.4251C86.2092 45.7856 86.2092 46.1461 85.849 46.5066L85.2486 48.189Z" fill="#804E3A"/>
<path d="M92.2126 50.4723V44.8242H94.7341C95.2144 44.8242 95.5746 44.8242 95.8147 44.8242C96.0548 44.8242 96.295 45.0646 96.415 45.3049C96.5351 45.5453 96.6552 45.7856 96.6552 46.1461C96.6552 46.5066 96.6552 46.8671 96.295 47.1075C95.9348 47.3478 95.6946 47.5882 95.0943 47.5882C95.3344 47.5882 95.4545 47.8285 95.5746 47.8285C95.8147 48.0689 96.0548 48.3092 96.1749 48.5495L97.1355 50.1118H96.1749L95.4545 48.9101C95.2144 48.5495 95.0943 48.3092 94.9742 48.189C94.8542 48.0689 94.7341 47.8285 94.614 47.8285C94.614 47.8285 94.3739 47.8285 94.2538 47.8285H93.0531V50.3521H92.2126V50.4723ZM92.9331 47.3478H95.3344C95.5746 47.3478 95.6946 47.1075 95.8147 46.9873C95.8147 46.9873 95.8147 46.6268 95.8147 46.5066C95.8147 46.2663 95.8147 46.0259 95.5746 45.9058C95.3344 45.7856 95.0943 45.6654 94.614 45.6654H92.813V47.468L92.9331 47.3478Z" fill="#804E3A"/>
<path d="M100.377 50.4723V44.8242H101.098V50.4723H100.377Z" fill="#804E3A"/>
<path d="M105.78 48.6698H106.501C106.501 48.9102 106.501 49.1505 106.741 49.2707C106.981 49.3909 107.101 49.6312 107.341 49.7514C107.582 49.7514 107.822 49.7514 108.182 49.7514C108.542 49.7514 108.662 49.7514 108.902 49.7514C109.142 49.7514 109.262 49.511 109.383 49.3909C109.383 49.3909 109.383 49.0303 109.383 48.9102C109.383 48.79 109.383 48.5497 109.383 48.4295C109.383 48.4295 109.142 48.1891 108.902 48.069C108.902 48.069 108.422 48.069 107.942 47.8286C107.461 47.5883 107.101 47.5883 106.861 47.4681C106.621 47.4681 106.381 47.1076 106.261 46.9874C106.261 46.7471 106.021 46.5067 106.021 46.2664C106.021 46.026 106.021 45.6655 106.261 45.4252C106.261 45.1848 106.621 44.9445 106.981 44.8243C107.341 44.8243 107.581 44.584 108.062 44.584C108.542 44.584 108.782 44.584 109.142 44.8243C109.503 44.8243 109.743 45.1848 109.863 45.4252C109.983 45.6655 110.103 46.026 110.103 46.2664H109.383C109.383 46.026 109.383 45.6655 109.022 45.5454C108.782 45.305 108.422 45.305 108.062 45.305C107.702 45.305 107.341 45.305 107.101 45.5454C106.861 45.5454 106.741 45.9059 106.741 46.1462C106.741 46.3866 106.741 46.5067 106.981 46.6269C106.981 46.6269 107.461 46.8672 108.062 46.9874C108.662 47.1076 109.022 47.2278 109.262 47.3479C109.623 47.3479 109.863 47.7085 109.983 47.9488C110.103 48.1891 110.223 48.4295 110.223 48.79C110.223 49.1505 110.223 49.3909 109.983 49.6312C109.743 49.8715 109.623 50.1119 109.262 50.2321C108.902 50.2321 108.542 50.4724 108.182 50.4724C107.822 50.4724 107.221 50.4724 106.861 50.2321C106.501 50.2321 106.261 49.8715 106.021 49.511C105.78 49.2707 105.78 48.9102 105.66 48.5497H105.78V48.6698Z" fill="#804E3A"/>
<path d="M59.0737 37.6138C58.1131 37.6138 57.0325 37.6138 56.072 37.2532C55.3516 37.0129 54.6312 36.6524 53.9107 36.1717C53.4305 35.8112 52.9502 35.2103 52.7101 34.7296C52.4699 34.249 52.3499 33.6481 52.3499 33.0472V32.206C52.3499 31.9657 52.59 31.8455 52.7101 31.7254C52.9502 31.6052 53.0703 31.485 53.3104 31.485C53.3104 32.5666 53.3104 33.6481 53.9107 34.7296C54.271 35.5708 54.9914 36.1717 55.8318 36.6524C56.7924 37.1331 57.873 37.2532 58.9536 37.2532C60.0342 37.2532 61.9553 36.8927 63.036 35.8112C63.9965 34.6095 64.4768 33.1674 64.3567 31.7254C64.3567 30.8841 64.3567 30.0429 63.7564 29.3219C63.156 28.6009 62.6758 27.8799 61.8353 27.3992C60.7547 26.6781 59.674 25.9571 58.4734 25.4764C57.5128 24.9957 56.7924 24.5151 56.072 24.0344C55.4716 23.6738 54.8713 23.1932 54.391 22.5923C53.9107 22.1116 53.5505 21.5108 53.3104 20.7897C53.0703 20.0687 52.9502 19.2275 52.9502 18.5065C52.9502 17.7854 53.1903 16.5837 53.7907 15.6223C54.271 14.7811 55.1114 14.0601 55.9519 13.5794C57.0325 13.0987 58.2332 12.8584 59.3138 12.8584C60.3945 12.8584 61.355 12.9786 62.3156 13.3391C63.156 13.5794 63.7564 14.0601 64.3567 14.661C64.837 15.1417 65.0771 15.8627 65.0771 16.5837C65.0771 17.3048 65.0771 17.3048 64.837 17.6653C64.5969 17.9056 64.3567 18.0258 63.9965 18.0258C63.9965 16.7039 63.6363 15.382 62.7958 14.3005C61.8353 13.4593 60.5145 13.0987 59.3138 13.2189C58.3533 13.2189 57.3927 13.4593 56.5523 13.8198C55.8318 14.1803 55.2315 14.9013 54.8713 15.6223C54.5111 16.4635 54.271 17.4249 54.271 18.3863C54.271 19.3477 54.271 20.0687 54.8713 20.7897C55.4716 21.5108 55.8318 22.1116 56.5523 22.5923C57.3927 23.1932 58.3533 23.6739 59.1938 24.1545C60.2744 24.7554 61.355 25.3563 62.3156 25.9571C63.2761 26.558 64.1166 27.279 64.7169 28.1202C65.3173 29.0816 65.6775 30.2833 65.6775 31.3648C65.6775 32.4464 65.4373 33.5279 64.9571 34.4893C64.4768 35.4507 63.6363 36.1717 62.6758 36.6524C61.4751 37.2532 60.2744 37.7339 58.9536 37.6138H59.0737Z" fill="#804E3A"/>
<path d="M69.0396 37.2532V36.8927H70.4804C70.9606 36.8927 71.4409 36.8927 71.8011 36.6523C72.1613 36.5322 72.4015 36.1716 72.4015 35.8111V14.4206C72.4015 14.0601 72.1613 13.6995 71.8011 13.5794C71.3209 13.4592 70.8406 13.339 70.4804 13.339H69.0396V12.9785H77.4444V13.2189H76.1236C75.6433 13.2189 75.163 13.2189 74.8028 13.4592C74.4426 13.5794 74.2025 13.9399 74.2025 14.3004V35.691C74.2025 36.0515 74.4426 36.412 74.8028 36.5322C75.2831 36.6523 75.7634 36.7725 76.1236 36.7725H77.4444V37.133H69.0396V37.2532Z" fill="#804E3A"/>
<path d="M81.4065 37.2532V36.8927H82.8473C83.3276 36.8927 83.8079 36.8927 84.1681 36.6523C84.5283 36.5322 84.7684 36.1716 84.7684 35.8111V14.4206C84.7684 14.0601 84.5283 13.6995 84.1681 13.5794C83.6878 13.4592 83.2075 13.339 82.8473 13.339H81.4065V12.9785H89.8113V13.2189H88.4905C88.0103 13.2189 87.53 13.2189 87.1698 13.4592C86.8096 13.5794 86.5694 13.9399 86.5694 14.3004V36.6523H96.295C96.7753 36.6523 97.3756 36.6523 97.8559 36.412C98.2161 36.2918 98.4562 35.9313 98.5763 35.5708C98.5763 35.0901 98.8164 34.4892 98.8164 33.8884V30.0429H99.2967L98.9365 37.0129H81.5266V37.2532H81.4065Z" fill="#804E3A"/>
<path d="M99.0567 15.2617C99.0567 14.9012 98.8166 14.5407 98.5765 14.1802C98.5765 13.9398 98.2163 13.8197 97.9761 13.6995H96.2952V13.339H104.34V13.5793H102.539C101.938 13.5793 101.458 13.5793 100.858 13.8197C100.618 13.9398 100.498 14.3004 100.498 14.5407V15.5021C100.498 15.8626 100.738 16.3433 100.858 16.7038C100.978 17.0643 101.098 17.4248 101.218 17.6652L105.42 28.9613C105.661 29.6823 105.901 30.2832 106.141 31.0042L106.741 32.6866C106.741 33.2875 107.101 33.7682 107.221 34.2488L107.702 35.6909C107.942 34.9699 108.182 34.369 108.422 33.648C108.662 32.927 108.902 32.3261 109.143 31.4849C109.383 30.6437 109.743 29.8025 110.103 28.8411L114.185 17.545C114.185 17.3046 114.185 16.9441 114.546 16.5836C114.546 16.2231 114.786 15.7424 115.026 15.3819C115.026 15.0214 115.026 14.781 115.266 14.4205C115.266 14.1802 115.266 13.8197 114.906 13.6995C114.426 13.4591 113.825 13.339 113.225 13.4591H111.544V13.0986H118.868V13.4591H118.028C117.667 13.4591 117.187 13.4591 116.827 13.5793C116.587 13.5793 116.347 13.8197 116.227 14.06C115.986 14.4205 115.866 14.781 115.746 15.1416L107.822 37.133H107.341L99.0567 15.1416V15.2617Z" fill="#804E3A"/>
<path d="M114.065 37.253V36.8925H115.986C116.226 36.8925 116.587 36.6522 116.707 36.4118C116.947 36.0513 117.067 35.6908 117.187 35.2101L125.352 13.3389H125.952C125.952 13.3389 133.973 34.6606 134.237 35.3303C134.5 36 134.477 36.0513 134.717 36.4118C134.717 36.6522 135.077 36.7723 135.317 36.8925H137.118V37.253H129.434V36.8925H130.755C131.355 36.8925 131.955 36.8925 132.436 36.6522C132.676 36.4118 132.796 36.1715 132.796 35.811C132.796 35.811 132.796 35.4052 132.796 34.8496C132.796 34.2939 132.436 33.6479 132.436 33.6479C132.436 33.6479 132.196 32.9268 132.075 32.8067L130.515 28.4805H120.309L118.748 32.6865C118.748 32.6865 118.775 32.5554 118.388 33.5277C118 34.5 117.667 35.811 117.667 35.811C117.667 35.811 117.667 36.4118 118.027 36.532C118.628 36.7723 119.228 36.8925 119.828 36.7723H121.75V37.1329H114.065V37.253ZM120.189 28.2402H130.154L127.273 20.429L126.552 18.3861C126.312 17.665 126.072 16.944 125.832 16.223L125.232 14.5406L124.751 15.7423C124.751 16.223 124.391 16.7037 124.151 17.3045L123.551 18.8668L123.07 20.0685L120.069 28.12L120.189 28.2402Z" fill="#804E3A"/>
<path d="M37.3535 47.1789H39.6226V19.8515C39.5053 15.5492 37.9012 11.6453 35.319 8.65756C32.1892 4.83331 27.4552 2.40332 22.1736 2.40332C16.8919 2.40332 10.7886 5.59019 7.737 10.4502C5.89819 13.1989 4.88098 16.4654 4.80273 19.8913V47.1789H9.88879V52.8754H25.1861H34.5757V50.2064C35.6712 49.33 36.6101 48.3341 37.3535 47.1789ZM24.834 51.9592C20.6869 51.9592 16.9701 50.0869 14.388 47.1789H33.5976V49.8081C31.6414 51.2023 29.294 51.9592 26.8293 51.9592H24.7948H24.834ZM5.62433 19.8515C5.62433 16.6646 6.48504 13.7167 7.97174 11.1672C11.0234 6.22757 16.5007 3.04069 22.6039 3.20004C27.4552 3.31955 31.7979 5.55036 34.8104 9.01608C37.2361 11.9639 38.6837 15.7085 38.6837 19.8515V35.2679C38.3316 34.3517 37.9012 33.4753 37.3535 32.6388C36.571 31.4437 35.5929 30.408 34.5366 29.6112V19.6921C34.5366 12.7607 28.981 7.14379 22.2127 7.14379C15.4052 7.14379 9.88879 12.7607 9.88879 19.6921V22.0823C8.63684 22.64 7.5805 23.357 6.71979 24.2732C6.28943 24.7513 5.93732 25.2691 5.62433 25.8268V19.8913V19.8515ZM10.7886 37.5784V37.2597V34.6704C12.1971 34.5907 13.6055 34.1924 14.8575 33.5152C16.0312 32.838 17.1658 32.1209 18.2612 31.2844C19.3567 30.408 20.5695 29.6511 21.7823 28.9739L22.0562 28.8544C23.582 28.1373 25.1861 27.7788 26.8684 27.7788C29.3723 27.7788 31.7197 28.5755 33.6367 29.9698V46.2627H13.7229C11.9232 43.8327 10.8278 40.845 10.8278 37.5784H10.7886ZM10.7495 19.6124C10.7495 16.5052 11.9232 13.5574 14.1141 11.3664C16.2659 9.17543 19.1611 7.94051 22.2127 7.94051C25.1861 7.94051 27.9638 9.09575 30.1156 11.1672L30.3504 11.4062C31.8762 12.8802 31.6414 15.589 30.5069 17.1824C29.0593 18.8954 27.1031 20.0108 24.8731 20.2896C22.9169 20.6083 20.9607 20.7278 18.9654 20.6482H18.496C17.557 20.6482 16.618 20.6482 15.5617 20.7278C13.762 20.8473 12.1579 21.1262 10.7495 21.6441V19.5328V19.6124ZM15.6791 21.7237C16.7745 21.6441 17.9091 21.6441 19.0046 21.6441C20.9999 21.6839 23.0343 21.5644 24.9904 21.2457C27.377 20.927 29.5679 19.6921 31.1328 17.78C31.8762 16.7841 32.2674 15.3898 32.2283 14.0752C33.1281 15.7484 33.5976 17.6605 33.5976 19.6124V28.9739C29.4505 26.3049 23.9732 26.2252 19.6697 29.1731L19.4349 29.3324C18.8481 29.7308 18.2221 30.1689 17.6744 30.6071C16.618 31.4039 15.5226 32.1209 14.388 32.7583C13.2925 33.316 12.0015 33.7143 10.7495 33.794V22.6798C12.1188 22.1619 13.762 21.8034 15.6791 21.6839V21.7237ZM9.84966 23.0782V33.794C8.83245 33.7143 7.89349 33.3957 7.11102 32.6786C6.2503 31.8421 5.70257 30.6868 5.70257 29.4519C5.70257 27.739 6.28943 26.1057 7.42401 24.8309C8.08911 24.1139 8.9107 23.5164 9.88879 23.0782H9.84966ZM34.4975 30.6868C36.9622 32.7981 38.5663 35.9452 38.6837 39.4507V40.3669C38.6054 42.4782 37.9794 44.5099 36.884 46.2627H34.5366V30.647L34.4975 30.6868ZM12.5492 46.3025H10.7886V42.8368C11.219 44.0717 11.845 45.2269 12.5492 46.3025ZM38.6837 44.5099V46.2627H37.8621C38.1751 45.705 38.4489 45.1074 38.6837 44.5099ZM6.48504 33.3957C7.42401 34.2322 8.63684 34.6704 9.84966 34.7501V37.2996V37.6183V46.3025H5.62433V32.3599C5.85907 32.7583 6.13293 33.077 6.48504 33.3957ZM13.2143 47.1789C14.9357 49.33 17.2049 51.0031 19.8262 51.9592H10.7886V47.1789H13.1752H13.2143ZM33.6367 50.8438V51.9592H31.4849C32.2283 51.6405 32.9716 51.282 33.6367 50.8438ZM34.5366 47.1789H36.2971C35.9841 47.6171 35.632 48.0154 35.2408 48.4138C35.0061 48.6528 34.7713 48.852 34.5366 49.0512V47.139V47.1789Z" fill="#804E3A"/>
</svg>
