<?xml version="1.0" encoding="UTF-8"?>
<svg id="Layer_1" data-name="Layer 1" xmlns="http://www.w3.org/2000/svg" version="1.1" viewBox="0 0 212.9 214.1">
  <defs>
    <style>
      .cls-1 {
        fill: #804e3a;
        stroke-width: 0px;
      }
    </style>
  </defs>
  <path class="cls-1" d="M137.4,32.8c0-15-12.2-27.1-27.1-27.1s-27.1,12.2-27.1,27.1v41.9h8v8.8h38.2v-3.9c1.9-1.4,3.5-3.1,4.7-4.9h3.3v-42h0ZM91.8,74.9h4.5c3.2,4,7.7,6.9,12.8,8.1h-17.2v-8.1h-.1ZM83.7,50.7c.4,1,1.1,2,1.9,2.8,1.5,1.3,3.4,2,5.4,2v18.6h-7.4v-23.4h0ZM136.7,58.8c-.6-2.1-1.4-4.1-2.7-6s-2.9-3.5-4.6-4.8v-15.5c0-4.7-1.7-9-4.5-12.3-.3-.4-.6-.8-1-1.2h0c-3.5-3.4-8.2-5.6-13.5-5.6-10.5,0-19.1,8.6-19.1,19.1v4c-2,.8-3.6,1.9-5,3.3-1.1,1.2-1.9,2.5-2.4,4v-11c.3-14.3,11.7-25.7,26-26h.5c14.4,0,26.2,11.5,26.5,26v26h-.2ZM128.7,80.3v2.7h-6.1c2.2-.6,4.2-1.5,6.1-2.7ZM96.6,74.2c-3-3.8-4.8-8.6-4.8-13.9h0v-4.8c2.3,0,4.5-.7,6.5-1.7,1.8-1,3.6-2.2,5.3-3.4,1.8-1.3,3.7-2.6,5.7-3.6h.1c2.6-1.2,5.4-1.9,8.2-1.9h0c4.1,0,7.9,1.3,11,3.5v25.8h-32.1.1ZM91.8,37c2.3-.9,5-1.4,8.1-1.6,1.8,0,3.6,0,5.3,0,3.2,0,6.4,0,9.5-.6,3-.6,7.1-1.9,9.5-5.2,1.3-1.8,2-4.4,1.5-6.8,1.8,2.9,2.9,6.3,2.9,9.9v15c-2.2-1.5-4.7-2.5-7.3-3-5.2-1-10.4,0-14.8,3h-.1c-1.1.7-2.2,1.4-3.2,2.2-1.7,1.2-3.4,2.4-5.2,3.4-1.8.9-4,1.6-6.2,1.7v-18h0ZM124.3,20.6c1.6,2.6,1.1,6.1-.6,8.4-2.3,3.1-6.2,4.4-9.1,5-3.1.5-6.3.7-9.4.6h0c-1.7,0-3.5,0-5.3,0-3.1.2-5.8.7-8.1,1.6v-3.7c0-10.2,8.3-18.4,18.4-18.4s10.7,2.5,14.1,6.5h0ZM86.6,40.3c1.2-1.2,2.7-2.2,4.5-3v17.7c-1.8,0-3.6-.6-5-1.9-1.5-1.4-2.3-3.3-2.4-5.3,0-2.8,1-5.5,2.9-7.5ZM95.7,74.2h-3.9v-8.4c.7,3.1,2.1,5.9,3.9,8.4ZM114.5,83c-7,0-13.2-3.2-17.4-8.1h31.6v4.6c-3.1,2.2-6.9,3.5-11,3.5h-3.2ZM129.3,48.9c4.3,3.4,7.2,8.6,7.4,14.4v1.3c-.1,3.5-1.2,6.8-3,9.6h-4.4v-25.3ZM129.3,74.9h3.9c-1.1,1.6-2.4,2.9-3.9,4.1v-4.1ZM136.7,68.9v5.3h-2.2c1-1.6,1.8-3.4,2.2-5.3Z"/>
  <path class="cls-1" d="M34.8,50.4h-1l2.5-6.1h.6l2.5,6.1h-1l-.6-1.4h-2.5l-.6,1.4h0ZM35.7,48.2h1.7l-.8-2.2s-.9,2.2-.9,2.2Z"/>
  <path class="cls-1" d="M42.7,44.3c1.6,0,2.6.9,2.6,2.2s-.6,1.7-1.4,1.9c.4.2.8.6,1,1l.6.9h-1l-.5-.7c-.5-.8-.7-.9-1.3-.9h-1.1v1.6h-.9v-6.1h2ZM41.6,48h1.2c.9,0,1.7-.4,1.7-1.4s-.8-1.4-1.7-1.4h-1.2v2.7h0Z"/>
  <path class="cls-1" d="M48.9,50.4h-.9v-5.2h-1.8v-.9h4.5v.9h-1.8s0,5.2,0,5.2Z"/>
  <path class="cls-1" d="M54.4,49.5v.9h-2.4v-.9h.7v-4.3h-.7v-.9h2.4v.9h-.7v4.3h.7Z"/>
  <path class="cls-1" d="M58.3,44.3c.9,0,1.7.4,2.3,1l-.6.6c-.5-.4-1-.7-1.7-.7h0c-.5,0-1.2.2-1.2.9s.4.7,1.2.8h.6c1.2.2,2.1.7,2.1,1.9s-1,1.8-2.3,1.8h0c-1,0-2-.4-2.5-1.3l.6-.6c.4.7,1.1,1,1.9,1h0c.8,0,1.4-.4,1.4-1s-.5-.8-1.2-.9h-.6c-1.2-.2-2-.7-2-1.7,0-1.1,1.1-1.9,2.2-1.8h-.2Z"/>
  <path class="cls-1" d="M62.5,50.4h-1l2.5-6.1h.6l2.5,6.1h-1l-.6-1.4h-2.5l-.6,1.4h0ZM63.4,48.2h1.7l-.9-2.2-.9,2.2h.1Z"/>
  <path class="cls-1" d="M72.4,50.4l-3.2-4.3v4.3h-.9v-6.1h.6l3.2,4.3v-4.3h.9v6.1h-.6Z"/>
  <path class="cls-1" d="M148.3,50.5h-.9v-5.2h-1.8v-.9h4.5v.9h-1.8v5.2Z"/>
  <path class="cls-1" d="M150.5,50.5h-1l2.5-6.1h.6l2.5,6.1h-1l-.6-1.4h-2.4l-.6,1.4ZM151.4,48.2h1.7l-.9-2.1-.9,2.1h0Z"/>
  <path class="cls-1" d="M157.5,44.4c1.6,0,2.7.9,2.7,2.3s-1.1,2.3-2.7,2.3h-1v1.5h-.9v-6.1s1.9,0,1.9,0ZM157.6,48.1c.9,0,1.7-.4,1.7-1.4s-.8-1.4-1.7-1.4h-1.1v2.8h1.1Z"/>
  <path class="cls-1" d="M163.4,49.6v.9h-2.4v-.9h.7v-4.3h-.7v-.9h2.4v.9h-.7v4.3h.7Z"/>
  <path class="cls-1" d="M166.6,44.3c.9,0,1.7.4,2.3,1l-.6.6c-.5-.4-1-.7-1.7-.7h0c-.5,0-1.2.2-1.2.9s.4.7,1.2.8h.6c1.2.2,2.1.7,2.1,1.9s-1,1.8-2.3,1.8h0c-1,0-2-.4-2.5-1.3l.6-.6c.4.7,1.1,1,1.9,1h0c.8,0,1.4-.4,1.4-1s-.5-.8-1.2-.9h-.6c-1.2-.2-2-.7-2-1.7s1-1.9,2.1-1.8h.1-.2Z"/>
  <path class="cls-1" d="M171.8,44.3c.9,0,1.7.4,2.3,1l-.6.6c-.5-.4-1-.7-1.7-.7h0c-.5,0-1.2.2-1.2.9s.4.7,1.2.8h.6c1.2.2,2.1.7,2.1,1.9s-1,1.8-2.3,1.8h0c-1,0-2-.4-2.5-1.3l.6-.6c.4.7,1.1,1,1.9,1h0c.8,0,1.4-.4,1.4-1s-.5-.8-1.2-.9h-.6c-1.2-.2-2-.7-2-1.7.1-1.1,1.1-1.9,2.2-1.8h.1-.3Z"/>
  <path class="cls-1" d="M177.5,49.6v.9h-2.4v-.9h.7v-4.3h-.7v-.9h2.4v.9h-.7v4.3h.7Z"/>
  <path class="cls-1" d="M182.4,47v.9h-2.8v1.7h3v.9h-4v-6.1h4v.9h-3v1.7h2.8Z"/>
  <path class="cls-1" d="M185.4,44.4c1.6,0,2.6.9,2.6,2.2s-.6,1.7-1.4,2c.4.2.8.6,1,1l.6.9h-1.1l-.5-.7c-.5-.8-.7-.9-1.3-.9h-1v1.6h-.9v-6.1h2,0ZM184.3,48h1.2c.9,0,1.7-.4,1.7-1.4s-.8-1.4-1.7-1.4h-1.2v2.7h0Z"/>
  <path class="cls-1" d="M76.1,192c3.3,0,5.6,1.8,5.6,4.7s-2.3,4.7-5.6,4.7h-2.6v3.4h-1.4v-12.9h4.1,0ZM76.2,200.1c2.2,0,4.2-1,4.2-3.4s-1.9-3.4-4.2-3.4h-2.7v6.8h2.7Z"/>
  <path class="cls-1" d="M89.9,204.9h-1.6l5.3-12.9h.8l5.3,12.9h-1.6l-1.4-3.4h-5.5l-1.4,3.4h0ZM91.8,200.1h4.5l-2.2-5.5-2.2,5.5h-.1Z"/>
  <path class="cls-1" d="M112.3,192c3.3,0,5.5,1.8,5.5,4.6s-1.3,3.7-3.3,4.1c.9.5,1.7,1.2,2.1,2.1l1.3,2h-1.6l-1-1.6c-1.1-1.7-1.7-1.9-3.1-2h-2.7v3.6h-1.4v-12.9h4.2ZM109.6,199.9h2.8c2.2,0,4.1-1,4.1-3.3s-1.9-3.3-4.1-3.3h-2.8v6.6Z"/>
  <path class="cls-1" d="M130.8,203.5v1.3h-4.4v-1.3h1.5v-10.2h-1.5v-1.4h4.4v1.3h-1.5v10.2h1.5Z"/>
  <path class="cls-1" d="M144.4,191.9c1.8,0,3.5.8,4.6,2.1l-.9.9c-.9-1-2.3-1.7-3.7-1.7h-.2c-1.4,0-3,.7-3,2.2s.9,1.7,2.8,1.9l1.4.2c2.6.3,4.1,1.3,4.1,3.7s-2.1,3.8-4.7,3.8h-.1c-2.1.1-4.1-.9-5.2-2.8l.9-.9c.8,1.5,2.5,2.5,4.2,2.3h.1c1.8,0,3.3-.9,3.3-2.4s-1-2.1-2.9-2.3l-1.4-.2c-2.6-.3-4-1.3-4-3.2s2.1-3.6,4.4-3.6h.3Z"/>
  <path class="cls-1" d="M29.8,169.7c-2.4,0-4.7-.3-7-.9-1.8-.5-3.4-1.3-4.9-2.4-1.2-.9-2.2-2.1-2.9-3.5-.6-1.2-1-2.5-1-3.9s0-1.3.3-1.9c.2-.5.5-.9.9-1.2s1-.4,1.5-.4c0,2.6.4,5.2,1.5,7.6.9,1.9,2.5,3.5,4.4,4.4,2.3,1,4.8,1.5,7.4,1.5,4.2,0,7.4-1.1,9.5-3.4s3.1-5.5,3.1-9.7-.4-3.9-1.3-5.6c-1.1-1.8-2.6-3.3-4.4-4.5-2.5-1.7-5.2-3.2-7.9-4.6-2.2-1.2-4.1-2.3-5.8-3.3-1.5-.9-2.8-2.1-4-3.4-1-1.2-1.8-2.6-2.4-4.1-.6-1.7-.9-3.6-.8-5.4,0-2.3.6-4.7,1.8-6.7,1.3-2,3.1-3.6,5.2-4.7,2.5-1.2,5.2-1.8,8-1.7,2.4,0,4.8.4,7.1,1.2,1.8.6,3.5,1.7,4.8,3.1,1.1,1.2,1.7,2.8,1.7,4.4s-.2,1.7-.7,2.4c-.5.6-1.2.9-2,.8,0-4-.9-6.9-2.8-8.6-1.8-1.7-4.6-2.6-8.3-2.6s-4.5.4-6.6,1.5c-1.7,1-3.1,2.5-4,4.3-1,2.1-1.4,4.3-1.3,6.6,0,2,.4,3.9,1.3,5.6,1,1.6,2.3,3,3.9,4.1,2,1.4,4.1,2.6,6.3,3.7,2.6,1.4,5,2.8,7.4,4.2,2.2,1.3,4.1,3,5.6,5.1,1.5,2.3,2.3,4.9,2.2,7.6,0,2.6-.6,5.1-1.8,7.3-1.2,2.2-3,3.9-5.3,5.1-2.7,1.3-5.7,1.9-8.8,1.8v.2Z"/>
  <path class="cls-1" d="M53.2,169v-.8h3.3c1.1,0,2.2-.1,3.2-.5.8-.4,1.3-1.1,1.4-1.9.3-1.4.4-2.9.3-4.4v-41.2c0-1.5,0-2.9-.3-4.4,0-.8-.7-1.6-1.4-1.9-1-.4-2.1-.5-3.2-.5h-3.3v-.8h19.6v.8h-3.1c-1.1,0-2.2.1-3.2.5-.8.4-1.3,1.1-1.4,1.9-.3,1.4-.4,2.9-.3,4.4v41.1c0,1.5,0,2.9.3,4.4,0,.8.7,1.6,1.4,1.9,1,.4,2.1.5,3.2.5h3.1v.8h-19.6Z"/>
  <path class="cls-1" d="M82,169v-.8h3.3c1.1,0,2.2-.1,3.2-.5.8-.4,1.3-1.1,1.4-1.9.3-1.4.4-2.9.3-4.4v-41.2c0-1.5,0-2.9-.3-4.4,0-.8-.7-1.6-1.4-1.9-1-.4-2.1-.5-3.2-.5h-3.3v-.8h19.6v.8h-3.1c-1.1,0-2.2.1-3.2.5-.8.4-1.3,1.1-1.4,1.9-.3,1.4-.4,2.9-.3,4.4v47.9h22.7c1.3,0,2.5-.1,3.7-.6.8-.4,1.5-1.1,1.7-2,.4-1.3.5-2.6.6-3.9l.4-9.1h.9l-.6,16.3h-40.8l-.2.2Z"/>
  <path class="cls-1" d="M123.4,117.3c-.3-.9-.7-1.8-1.2-2.6-.4-.5-.9-.9-1.5-1.1-.9-.2-1.9-.3-2.9-.2h-1.2v-.8h18.8v.8h-4.1c-2,0-3.3.2-3.9.6-.5.4-.9,1.1-.8,1.7,0,.8.2,1.5.4,2.3.3.9.6,1.9.9,2.8s.6,1.7.8,2.2l9.9,26.5c.7,1.7,1.3,3.2,1.8,4.7.5,1.4,1,2.8,1.4,4.1s.8,2.5,1.2,3.6.8,2.3,1.2,3.5c.6-1.6,1.2-3.2,1.7-4.7s1.1-3.2,1.7-4.9,1.4-3.8,2.2-6.2l9.6-26.4c.2-.5.4-1.3.8-2.2s.7-1.9,1-2.9c.3-.7.4-1.5.5-2.2,0-.7-.2-1.3-.8-1.8-.5-.4-1.8-.6-4-.6h-4v-.8h17.2v.8h-2c-1,0-1.9,0-2.8.3-.6.2-1.2.6-1.5,1.1-.5.8-.9,1.7-1.2,2.6l-18.6,51.5h-1.2l-19.3-51.7h0Z"/>
  <path class="cls-1" d="M158.6,169v-.8h1.8c1,0,1.9,0,2.9-.3.6-.2,1.2-.6,1.6-1.1.5-.8,1-1.7,1.2-2.7l19.1-51.4h1.4l19.5,51.6c.3.9.7,1.7,1.2,2.6.3.5.8.9,1.4,1.1.9.2,1.9.3,2.8.2h1.4v.8h-18v-.8h3c2.1,0,3.5-.2,4-.6.6-.4.9-1.1.8-1.8,0-.8-.2-1.6-.4-2.3-.3-1-.6-1.9-.9-2.8s-.6-1.6-.9-2.1l-3.7-10h-23.9l-3.7,9.9c-.2.5-.4,1.2-.8,2.1s-.7,1.9-1,2.8c-.3.8-.4,1.6-.5,2.4,0,.7.3,1.4.9,1.8.6.4,2,.6,4.2.6h4.4v.8h-17.8ZM173.2,147.8h23.3l-6.8-18.2c-.5-1.5-1.1-3.1-1.7-4.8-.6-1.7-1.2-3.4-1.8-5s-1-3-1.4-4.1l-1,2.7c-.4,1.1-.9,2.4-1.3,3.6s-.9,2.5-1.3,3.7-.8,2.2-1.1,2.9l-6.9,19.1h0Z"/>
</svg>