<?xml version="1.0" encoding="UTF-8"?>
<svg id="Layer_1" data-name="Layer 1" xmlns="http://www.w3.org/2000/svg" version="1.1" viewBox="0 0 116.6 46.6">
  <defs>
    <style>
      .cls-1 {
        isolation: isolate;
      }

      .cls-2 {
        fill: #804e3a;
        stroke-width: 0px;
      }
    </style>
  </defs>
  <path class="cls-2" d="M32.5,38.9H3.7v-22.3c.2-8,6.8-14.2,14.8-14,7.7.2,13.8,6.4,14,14v22.3ZM3.9,38.7h28.3v-22.1c0-7.8-6.3-14.2-14.2-14.2S3.9,8.8,3.9,16.6v22.1Z"/>
  <path class="cls-2" d="M28.2,43.6H7.9v-27.2c0-5.6,4.5-10.1,10.1-10.1s10.1,4.5,10.1,10.1h0v27.2h.1ZM8.2,43.4h19.7v-27c0-5.5-4.4-9.9-9.9-9.9s-9.9,4.4-9.9,9.9h0v27h0Z"/>
  <path class="cls-2" d="M8.1,28.6c-1.1,0-2.2-.3-3-1.1-.8-.8-1.3-1.9-1.3-3s.5-3.1,1.5-4.2c1.6-1.6,4-2.5,7.3-2.7h2.8c1.7,0,3.3,0,5-.3,1.9-.3,3.6-1.2,4.9-2.7,1-1.4,1.3-3.8-.2-5.1h.2c1.5,1.3,1.3,3.8.2,5.3-1.3,1.5-3,2.5-5,2.8-1.7.3-3.3.4-5,.3h-2.8c-3.2.2-5.6,1.1-7.1,2.7-1,1.1-1.5,2.5-1.5,4s.5,2.1,1.3,2.9c1.8,1.6,4.6,1,6.4,0,1-.5,1.9-1.1,2.8-1.8,1-.7,2-1.4,3.1-1.9v.2c-1,.6-2,1.2-2.9,1.9-.9.7-1.8,1.3-2.8,1.8-1.1.6-2.4.9-3.6.9"/>
  <path class="cls-2" d="M22,43.6v-.2c5.7,0,10.2-4.6,10.2-10.3s-4.6-10.2-10.3-10.2-4.1.6-5.7,1.8v-.2c4.7-3.2,11.2-2,14.4,2.8s2,11.3-2.8,14.5c-1.7,1.2-3.8,1.8-5.9,1.8"/>
  <path class="cls-2" d="M20.3,43.6c-6.8,0-12.4-5.5-12.4-12.4h.3c0,6.7,5.4,12.1,12.1,12.1v.2h0Z"/>
  <g class="cls-1">
    <g class="cls-1">
      <g class="cls-1">
        <path class="cls-2" d="M64,42v-4.7h2.5c.2,0,.4,0,.6.2.2,0,.3.3.4.4,0,.2,0,.4,0,.6,0,.4,0,.7-.4,1s-.7.4-1.4.4h-1.2v1.9h-.6v.2ZM64.6,39.6h1.2c.4,0,.7,0,.8-.2.2,0,.2-.4.2-.6s0-.4,0-.5-.2-.2-.4-.3h-1.8v1.7h0Z"/>
      </g>
    </g>
    <g class="cls-1">
      <g class="cls-1">
        <path class="cls-2" d="M69.7,42l1.8-4.7h.7l1.9,4.7h-.7l-.5-1.4h-1.9l-.5,1.4h-.8ZM71,40.1h1.6l-.5-1.3c0-.4-.3-.7-.3-1,0,.3,0,.6-.3.9,0,0-.5,1.4-.5,1.4Z"/>
      </g>
    </g>
    <g class="cls-1">
      <g class="cls-1">
        <path class="cls-2" d="M76.8,42v-4.7h2.1c.4,0,.7,0,.9,0,.2,0,.4.2.5.4s.2.4.2.7,0,.6-.3.8-.5.4-1,.4c.2,0,.3.2.4.2.2.2.4.4.5.6l.8,1.3h-.8l-.6-1c-.2-.3-.3-.5-.4-.6s-.2-.3-.3-.3c0,0-.2,0-.3,0h-1v2.1h-.7ZM77.4,39.4h2c.2,0,.3-.2.4-.3,0,0,0-.3,0-.4,0-.2,0-.4-.2-.5s-.4-.2-.8-.2h-1.5v1.5h0Z"/>
        <path class="cls-2" d="M83.6,42v-4.7h.6v4.7h-.6Z"/>
      </g>
    </g>
    <g class="cls-1">
      <g class="cls-1">
        <path class="cls-2" d="M88.1,40.5h.6c0,.2,0,.4.2.5s.3.3.5.4c.2,0,.4,0,.7,0s.4,0,.6,0c.2,0,.3-.2.4-.3,0,0,0-.3,0-.4s0-.3,0-.4c0,0-.2-.2-.4-.3,0,0-.4,0-.8-.2s-.7-.2-.9-.3c-.2,0-.4-.3-.5-.4,0-.2-.2-.4-.2-.6s0-.5.2-.7c0-.2.3-.4.6-.5.3,0,.5-.2.9-.2s.6,0,.9.2c.3,0,.5.3.6.5s.2.5.2.7h-.6c0-.2,0-.5-.3-.6-.2-.2-.5-.2-.8-.2s-.6,0-.8.2c-.2,0-.3.3-.3.5s0,.3.2.4c0,0,.4.2.9.3s.8.2,1,.3c.3,0,.5.3.6.5s.2.4.2.7,0,.5-.2.7-.3.4-.6.5c-.3,0-.6.2-.9.2s-.8,0-1.1-.2c-.3,0-.5-.3-.7-.6-.2-.2-.2-.5-.3-.8h.1Z"/>
      </g>
    </g>
  </g>
  <path class="cls-2" d="M49.2,31.3c-.8,0-1.7,0-2.5-.3-.6-.2-1.2-.5-1.8-.9-.4-.3-.8-.8-1-1.2-.2-.4-.3-.9-.3-1.4v-.7c0-.2.2-.3.3-.4.2-.1.3-.2.5-.2,0,.9,0,1.8.5,2.7.3.7.9,1.2,1.6,1.6.8.4,1.7.5,2.6.5s2.5-.3,3.4-1.2c.8-1,1.2-2.2,1.1-3.4,0-.7,0-1.4-.5-2s-.9-1.2-1.6-1.6c-.9-.6-1.8-1.2-2.8-1.6-.8-.4-1.4-.8-2-1.2-.5-.3-1-.7-1.4-1.2-.4-.4-.7-.9-.9-1.5s-.3-1.3-.3-1.9.2-1.6.7-2.4c.4-.7,1.1-1.3,1.8-1.7.9-.4,1.9-.6,2.8-.6s1.7.1,2.5.4c.7.2,1.2.6,1.7,1.1.4.4.6,1,.6,1.6s0,.6-.2.9c-.2.2-.4.3-.7.3,0-1.1-.3-2.2-1-3.1-.8-.7-1.9-1-2.9-.9-.8,0-1.6.2-2.3.5-.6.3-1.1.9-1.4,1.5-.3.7-.5,1.5-.5,2.3s0,1.4.5,2,.8,1.1,1.4,1.5c.7.5,1.5.9,2.2,1.3.9.5,1.8,1,2.6,1.5s1.5,1.1,2,1.8c.5.8.8,1.8.8,2.7s-.2,1.8-.6,2.6c-.4.8-1.1,1.4-1.9,1.8-1,.5-2,.7-3.1.6v.2h.1Z"/>
  <path class="cls-2" d="M57.5,31v-.3h1.2c.4,0,.8,0,1.1-.2.3-.1.5-.4.5-.7V12c0-.3-.2-.6-.5-.7-.4-.1-.8-.2-1.1-.2h-1.2v-.3h7v.2h-1.1c-.4,0-.8,0-1.1.2-.3.1-.5.4-.5.7v17.8c0,.3.2.6.5.7.4.1.8.2,1.1.2h1.1v.3h-7Z"/>
  <path class="cls-2" d="M67.8,31v-.3h1.2c.4,0,.8,0,1.1-.2.3-.1.5-.4.5-.7V12c0-.3-.2-.6-.5-.7-.4-.1-.8-.2-1.1-.2h-1.2v-.3h7v.2h-1.1c-.4,0-.8,0-1.1.2-.3.1-.5.4-.5.7v18.6h8.1c.4,0,.9,0,1.3-.2.3-.1.5-.4.6-.7,0-.4.2-.9.2-1.4v-3.2h.4l-.3,5.8h-14.5v.2h0Z"/>
  <path class="cls-2" d="M82.5,12.7c0-.3-.2-.6-.4-.9,0-.2-.3-.3-.5-.4h-1.4v-.3h6.7v.2h-1.5c-.5,0-.9,0-1.4.2-.2.1-.3.4-.3.6v.8c0,.3.2.7.3,1s.2.6.3.8l3.5,9.4c.2.6.4,1.1.6,1.7l.5,1.4c0,.5.3.9.4,1.3l.4,1.2c.2-.6.4-1.1.6-1.7s.4-1.1.6-1.8.5-1.4.8-2.2l3.4-9.4c0-.2,0-.5.3-.8,0-.3.2-.7.4-1,0-.3,0-.5.2-.8,0-.2,0-.5-.3-.6-.4-.2-.9-.3-1.4-.2h-1.4v-.3h6.1v.3h-.7c-.3,0-.7,0-1,.1-.2,0-.4.2-.5.4-.2.3-.3.6-.4.9l-6.6,18.3h-.4l-6.9-18.3h0Z"/>
  <path class="cls-2" d="M95,31v-.3h1.6c.2,0,.5-.2.6-.4.2-.3.3-.6.4-1l6.8-18.2h.5l6.9,18.3c0,.3.2.6.4.9,0,.2.3.3.5.4h1.5v.3h-6.4v-.3h1.1c.5,0,1,0,1.4-.2.2-.2.3-.4.3-.7v-.8c0-.4-.2-.7-.3-1s-.2-.6-.3-.7l-1.3-3.6h-8.5l-1.3,3.5-.3.7c0,.3-.2.7-.4,1,0,.3,0,.6-.2.9,0,.3,0,.5.3.6.5.2,1,.3,1.5.2h1.6v.3h-6.4ZM100.1,23.5h8.3l-2.4-6.5-.6-1.7c-.2-.6-.4-1.2-.6-1.8l-.5-1.4-.4,1c0,.4-.3.8-.5,1.3l-.5,1.3-.4,1-2.5,6.7h0Z"/>
</svg>